<?xml version="1.0" encoding="UTF-8" standalone="no"?>
<!-- Created with Inkscape (http://www.inkscape.org/) -->

<svg
   xmlns:dc="http://purl.org/dc/elements/1.1/"
   xmlns:cc="http://creativecommons.org/ns#"
   xmlns:rdf="http://www.w3.org/1999/02/22-rdf-syntax-ns#"
   xmlns:svg="http://www.w3.org/2000/svg"
   xmlns="http://www.w3.org/2000/svg"
   xmlns:sodipodi="http://sodipodi.sourceforge.net/DTD/sodipodi-0.dtd"
   xmlns:inkscape="http://www.inkscape.org/namespaces/inkscape"
   width="94.168991"
   height="191.92891"
   viewBox="0 0 94.168988 191.9289"
   id="svg4999"
   version="1.1"
   inkscape:version="0.91 r13725"
   sodipodi:docname="abbey-1.svg">
  <defs
     id="defs5001" />
  <sodipodi:namedview
     id="base"
     pagecolor="#ffffff"
     bordercolor="#666666"
     borderopacity="1.0"
     inkscape:pageopacity="0.0"
     inkscape:pageshadow="2"
     inkscape:zoom="2.8"
     inkscape:cx="-76.914104"
     inkscape:cy="41.636552"
     inkscape:document-units="px"
     inkscape:current-layer="layer1"
     showgrid="false"
     units="px"
     inkscape:window-width="1920"
     inkscape:window-height="1027"
     inkscape:window-x="0"
     inkscape:window-y="0"
     inkscape:window-maximized="1"
     showguides="true"
     inkscape:guide-bbox="true"
     fit-margin-top="0"
     fit-margin-left="0"
     fit-margin-right="0"
     fit-margin-bottom="0">
    <sodipodi:guide
       position="56.681336,-0.4635231"
       orientation="0,1"
       id="guide5615" />
    <sodipodi:guide
       position="0.25276646,-46.177806"
       orientation="1,0"
       id="guide5617" />
    <sodipodi:guide
       position="94.538478,0.60790538"
       orientation="1,0"
       id="guide5619" />
  </sodipodi:namedview>
  <metadata
     id="metadata5004">
    <rdf:RDF>
      <cc:Work
         rdf:about="">
        <dc:format>image/svg+xml</dc:format>
        <dc:type
           rdf:resource="http://purl.org/dc/dcmitype/StillImage" />
        <dc:title></dc:title>
      </cc:Work>
    </rdf:RDF>
  </metadata>
  <g
     inkscape:label="Calque 1"
     inkscape:groupmode="layer"
     id="layer1"
     transform="translate(-2.9615192,-857.82693)">
    <path
       id="path4273"
       style="fill:#000000"
       d="m 26.450042,980.52106 c -3.271573,-0.34027 -8.458013,-0.80844 -13.051129,-0.54131 0.0078,7.30098 -0.599387,24.71665 0.180695,30.93345 3.34698,0.6011 7.77352,0.7044 11.456157,0.039 0.470083,-3.6769 0.59215,-28.17489 1.414238,-30.43241 z m -16.352349,-8.16065 c 1.060395,1.7874 20.60281,2.7738 22.042314,0.96997 1.03908,-1.92312 -8.306104,-13.87799 -11.803586,-17.76099 0,0 -10.9117221,14.77442 -10.238728,16.79102 z m 31.755772,37.28479 c -5.333422,10.9012 -5.475201,9.2029 1.835589,9.3175 9.427747,0.2699 10.397403,0.7318 14.347524,-2.5051 1.693574,-2.1773 5.513883,-9.6179 6.132865,-11.8078 -8.727376,-0.9109 -19.364729,-1.0368 -19.766015,-0.219 z M 23.192041,921.06274 c 4.882739,0 10.946963,-0.71457 11.014,2.29741 -0.01173,4.86823 -5.297596,0.49868 -10.585375,2.98462 -2.414871,5.12753 -2.095955,15.90983 -1.95527,21.08235 0.114988,4.23658 1.692009,5.09664 2.122902,6.17299 1.579486,3.94637 4.228244,6.70883 5.909889,8.94367 5.191839,6.89929 9.251199,8.95657 10.957797,11.84966 -1.164628,5.28085 -11.01709,2.96583 -10.833226,7.20906 -0.357481,6.1284 -0.430502,11.54341 -0.332058,17.76216 0.05319,3.35424 1.45339,17.35584 2.469941,17.77894 5.561482,-2.602 8.168157,-10.415 10.875896,-14.6817 0.341836,-0.5386 1.555392,-0.6023 2.127244,-0.9226 l 0,0 c 1.076118,-0.6027 0.791659,-2.16681 1.036068,-3.71759 0.494997,-3.22593 1.2944,-2.78123 1.691579,0.84246 0.429524,3.50913 0.30116,2.97253 8.989462,3.62643 5.469726,0.4119 8.170973,0.6313 8.402318,-0.9191 0.641627,-4.30073 1.437158,-7.42067 2.165965,-6.9705 0.429328,0.26596 0.760056,1.79327 0.734869,3.3945 -0.06493,4.158 1.833867,10.3587 3.717328,12.1375 5.169231,4.8827 11.764669,9.1314 14.174612,9.1314 2.346034,0 2.743565,2.1985 0.613036,3.391 -1.52864,0.8554 -0.771908,6.2446 -0.842622,12.5987 -0.04224,3.8176 -0.848801,6.6986 1.169243,8.7844 1.562316,1.6146 6.169395,1.3572 7.705505,1.7252 2.990634,0.3912 2.586219,1.0627 2.595958,3.8463 -7.004624,-0.7521 -31.132057,2.5634 -39.037579,-2.7222 0.65907,-1.8468 2.007523,-9.7032 2.029152,-13.5201 0.02738,-5.0583 0.455885,-10.2144 1.271676,-10.0513 1.817636,0.3637 1.539709,4.1697 1.442751,8.0543 -0.0442,3.441 0.08839,14.6453 1.66514,15.0576 2.931379,0.7661 4.516496,-13.1506 4.254957,-17.7837 -0.255008,-4.5151 1.500949,-5.223 1.995203,-0.8046 0.295293,2.6373 0.608147,18.7623 1.298116,18.2746 0.088,-0.063 1.034542,1.0282 1.221809,-0.4619 0.574002,-4.5651 0.665602,-15.8184 0.918263,-16.6968 1.120784,-2.7777 1.678242,-1.214 2.098927,0.8303 0.09974,0.3716 0.836442,13.4325 1.222396,15.2798 0.410868,1.965 2.922658,-0.2621 3.663472,-0.2621 1.217311,-0.9887 1.232642,-10.8577 1.466921,-16.606 0.137282,-3.3753 0.202599,-6.6392 -0.768114,-7.2626 -2.266129,-1.2305 -11.194655,-7.3112 -14.917185,-12.9339 -1.309028,-2.1288 -4.184987,7.6663 -7.731163,10.5516 -3.590958,3.4269 -4.675329,4.14 -4.555217,9.5554 0.186172,5.1431 0.579283,13.8126 0.108339,18.4133 -5.467809,0.7271 -11.729664,0.067 -17.453459,0.2503 -9.306268,0.2425 -12.717117,-3.0608 -3.92638,-3.45 7.231159,-0.3207 14.571712,-0.3872 17.170526,-1.7354 1.65806,-0.8874 1.577334,-2.5473 1.34325,-9.6113 l -0.257745,-7.7855 -5.820402,-0.07 c -3.201171,-0.039 -6.318957,0.305 -6.928356,0.7716 -6.162041,0.7498 -6.453149,-2.455 -6.767177,0.9649 0.187736,7.8681 1.565835,10.8551 -1.286539,15.9388 -6.664158,0.7689 -20.289681,1.1022 -26.813232,-0.1447 -1.3323385,-1.2794 -1.1004064,-3.6085 0.1048193,-3.3844 0.55695,0.1056 2.1154713,0.6505 2.979878,-0.305 1.3833793,-1.5289 0.2667415,-3.1724 -0.150971,-6.7421 -0.2327144,-1.9869 0.120855,-4.9488 0.557302,-7.0092 0.2084651,-0.9852 2.1138286,-3.7336 2.3940636,-7.6616 0.7210231,-10.1107 0.6345081,-26.80436 0.8323741,-34.59462 -0.522492,-4.27569 -10.24205202,-5.05636 -7.189309,-8.67693 4.9445348,-5.40405 6.2104618,-4.93158 13.423746,-19.58672 0.744256,-1.0435 0.364912,-0.89253 0.592581,-5.71109 0.373125,-7.91228 -0.244448,-19.38999 -1.02496,-20.97636 -1.95613,-1.60592 -10.8977982,0.69697 -10.9846261,-2.47264 -0.1044281,-3.80478 6.1322771,-2.77927 9.9713991,-3.32957 0.02347,-9.80764 -0.17874,-17.60846 0.01956,-21.50985 -0.624065,-3.78992 -2.75831,-5.81238 -4.784607,-11.9404 -0.260092,-6.10024 1.555471,-13.56353 4.457517,-18.36566 5.698451,-11.67405 19.352018,-15.16742 29.087457,-6.60909 4.265048,4.61518 5.213858,12.5349 2.673712,18.22291 -5.299668,11.86765 -8.414912,17.08475 -0.0078,17.56152 1.563684,-0.25814 -0.465703,8.22284 -4.150764,6.17573 -1.919756,-1.64347 -6.236706,-8.02688 -6.589375,-10.59691 -0.387597,-2.26691 0.405979,-6.22658 3.70094,-11.21605 2.630337,-3.9491 7.470796,-13.03044 -1.65235,-18.16424 -4.34507,-1.31063 -13.774775,0.5374 -17.503719,7.46877 -2.167294,4.02889 -3.825629,7.84306 -3.992401,11.60325 -0.120073,2.70927 0.534148,5.39037 2.330547,8.10355 0.90121,2.28177 2.509834,4.80095 2.541319,7.08781 0.116552,8.52204 -0.215115,15.39278 0.413957,22.24515 z m 3.004245,99.69326 c -3.183689,-3.9698 -9.552045,-4.3312 -13.527001,-1.2336 -2.549572,2.1132 -4.9097649,8.2745 -2.555947,13.5851 1.947408,4.3942 10.50543,6.4397 14.328438,1.9254 3.212788,-3.7938 5.345703,-9.7986 1.75451,-14.2769 z"
       inkscape:connector-curvature="0"
       sodipodi:nodetypes="cccccccccsccccssccccsccccsccccscccssccscccccccsccsccccsccccccscsccccccssccscccscscccccscccccsccscsscsss" />
  </g>
</svg>
