<?xml version="1.0" encoding="UTF-8" standalone="no"?>
<!-- Created with Inkscape (http://www.inkscape.org/) -->

<svg
   xmlns:dc="http://purl.org/dc/elements/1.1/"
   xmlns:cc="http://creativecommons.org/ns#"
   xmlns:rdf="http://www.w3.org/1999/02/22-rdf-syntax-ns#"
   xmlns:svg="http://www.w3.org/2000/svg"
   xmlns="http://www.w3.org/2000/svg"
   xmlns:sodipodi="http://sodipodi.sourceforge.net/DTD/sodipodi-0.dtd"
   xmlns:inkscape="http://www.inkscape.org/namespaces/inkscape"
   width="100"
   height="100"
   viewBox="0 0 99.999997 99.999997"
   id="svg4999"
   version="1.1"
   inkscape:version="0.91 r13725"
   sodipodi:docname="caban-1.svg">
  <defs
     id="defs5001" />
  <sodipodi:namedview
     id="base"
     pagecolor="#ffffff"
     bordercolor="#666666"
     borderopacity="1.0"
     inkscape:pageopacity="0.0"
     inkscape:pageshadow="2"
     inkscape:zoom="2.8"
     inkscape:cx="-4.8454422"
     inkscape:cy="44.957218"
     inkscape:document-units="px"
     inkscape:current-layer="layer1"
     showgrid="false"
     units="px"
     inkscape:window-width="1920"
     inkscape:window-height="1027"
     inkscape:window-x="0"
     inkscape:window-y="0"
     inkscape:window-maximized="1"
     showguides="true"
     inkscape:guide-bbox="true">
    <sodipodi:guide
       position="59.642855,2.1428571"
       orientation="0,1"
       id="guide5615" />
    <sodipodi:guide
       position="3.2142856,-43.571427"
       orientation="1,0"
       id="guide5617" />
    <sodipodi:guide
       position="97.499997,3.2142856"
       orientation="1,0"
       id="guide5619" />
  </sodipodi:namedview>
  <metadata
     id="metadata5004">
    <rdf:RDF>
      <cc:Work
         rdf:about="">
        <dc:format>image/svg+xml</dc:format>
        <dc:type
           rdf:resource="http://purl.org/dc/dcmitype/StillImage" />
        <dc:title></dc:title>
      </cc:Work>
    </rdf:RDF>
  </metadata>
  <g
     inkscape:label="Calque 1"
     inkscape:groupmode="layer"
     id="layer1"
     transform="translate(0,-952.36223)">
    <path
       style="fill:#000000"
       d="m 73.499745,1010.7323 c -2.501208,-6.3135 -13.319647,-14.60264 -19.740089,-18.91212 -9.509694,-6.06555 -9.586581,-6.06911 -19.626656,-0.93736 -23.231932,11.79298 -16.318487,43.95268 -25.1757084,56.13358 -1.463468,1.7181 -3.6061068,1.0798 -5.7259641,1.1154 2.7318703,-13.6356 4.8524396,-24.5066 6.1410129,-34.3572 1.7814586,-13.6309 4.4401196,-11.7277 9.1129186,-16.79182 9.313561,-10.03688 18.960775,-14.53027 21.906814,-22.59987 3.821344,-12.12991 1.317406,-35.59951 7.621567,-35.62324 5.822904,0 3.963609,19.87678 5.345325,29.0107 2.340671,15.06302 5.847821,14.17549 31.647283,32.70553 0,0 8.014546,4.7865 10.09857,8.8492 0.75938,10.8567 1.903553,28.3616 -0.490037,40.2056 -10.480278,-1.1153 -19.844854,1.2459 -22.686122,-1.7288 2.82964,-9.974 2.801875,-33.9466 1.56812,-37.0613 z m -34.885215,30.5045 c -0.442576,-6.9459 0.835318,-21.3006 2.190693,-23.5146 1.745863,-2.8584 10.583981,-1.7217 14.65236,0.3322 0.201711,6.113 2.933462,20.54 -1.069065,24.3429 -5.207924,1.5069 -13.114852,1.5294 -15.774463,-1.1628 z"
       id="path4246"
       inkscape:connector-curvature="0"
       sodipodi:nodetypes="sccccsccscscccsccccc" />
  </g>
</svg>
