<?xml version="1.0" encoding="UTF-8" standalone="no"?>
<!-- Created with Inkscape (http://www.inkscape.org/) -->

<svg
   xmlns:dc="http://purl.org/dc/elements/1.1/"
   xmlns:cc="http://creativecommons.org/ns#"
   xmlns:rdf="http://www.w3.org/1999/02/22-rdf-syntax-ns#"
   xmlns:svg="http://www.w3.org/2000/svg"
   xmlns="http://www.w3.org/2000/svg"
   xmlns:sodipodi="http://sodipodi.sourceforge.net/DTD/sodipodi-0.dtd"
   xmlns:inkscape="http://www.inkscape.org/namespaces/inkscape"
   width="100"
   height="100"
   viewBox="0 0 99.999997 99.999997"
   id="svg4999"
   version="1.1"
   inkscape:version="0.91 r13725"
   sodipodi:docname="castle-ruined-2.svg">
  <defs
     id="defs5001" />
  <sodipodi:namedview
     id="base"
     pagecolor="#ffffff"
     bordercolor="#666666"
     borderopacity="1.0"
     inkscape:pageopacity="0.0"
     inkscape:pageshadow="2"
     inkscape:zoom="2.8"
     inkscape:cx="36.211021"
     inkscape:cy="-3.958274"
     inkscape:document-units="px"
     inkscape:current-layer="layer1"
     showgrid="false"
     units="px"
     inkscape:window-width="1920"
     inkscape:window-height="1027"
     inkscape:window-x="0"
     inkscape:window-y="0"
     inkscape:window-maximized="1"
     showguides="true"
     inkscape:guide-bbox="true">
    <sodipodi:guide
       position="59.642855,2.1428571"
       orientation="0,1"
       id="guide5615" />
    <sodipodi:guide
       position="3.2142856,-43.571427"
       orientation="1,0"
       id="guide5617" />
    <sodipodi:guide
       position="97.499997,3.2142856"
       orientation="1,0"
       id="guide5619" />
  </sodipodi:namedview>
  <metadata
     id="metadata5004">
    <rdf:RDF>
      <cc:Work
         rdf:about="">
        <dc:format>image/svg+xml</dc:format>
        <dc:type
           rdf:resource="http://purl.org/dc/dcmitype/StillImage" />
        <dc:title></dc:title>
      </cc:Work>
    </rdf:RDF>
  </metadata>
  <g
     inkscape:label="Calque 1"
     inkscape:groupmode="layer"
     id="layer1"
     transform="translate(0,-952.36223)">
    <path
       style="fill:#000000"
       d="m 30.935792,1005.229 c -0.420742,0.7493 -3.305097,18.2172 -1.622712,18.0032 5.535828,0 10.956487,0.06 15.734603,-0.4903 0.327836,-1.7963 2.936768,-16.7664 0.933923,-17.3031 -1.31916,-0.06 -14.218784,-1.556 -15.045814,-0.2091 z m 1.304698,-9.3665 c -2.53014,-2.31247 -5.581948,-4.71213 -6.781788,-5.33278 -1.043174,-0.53948 -2.058271,-1.6741 -2.839803,-1.52274 -0.808744,0.15596 0.293702,0.26584 -0.657728,2.68642 -0.951434,2.41986 -2.673748,4.28678 -6.177762,5.17257 -3.504011,0.88507 -5.910988,1.88074 -5.910988,0.38423 0,-0.38069 1.786978,-2.24583 2.84389,-3.26808 1.056916,-1.02225 2.32558,-3.07278 2.819245,-4.55653 0.741365,-2.22882 1.473851,-4.2003 0.31823,-5.97754 -1.709409,-2.81438 -14.5351142,-9.39556 -12.5510805,-12.15429 0.4046643,-0.40514 1.9042989,0.1666 3.4919485,1.33843 8.643221,5.37851 22.882558,20.05829 30.127324,21.52006 0.805298,0 1.464178,0.32965 1.464178,0.72558 0,0.39947 1.059444,1.86018 2.354355,3.2461 1.651097,1.76767 2.958348,4.11487 4.71643,4.11487 3.212556,0 10.782538,1.6273 10.782538,3.021 0,0.6423 -0.965984,1.0652 -2.434554,1.0652 -2.033441,0 -3.811214,-0.9089 -3.811214,0.7294 -1.505366,4.7221 -0.607324,11.2586 -0.662406,16.3124 0.0089,1.7762 0.329962,2.0045 2.578218,1.8319 4.082642,-0.3155 6.733651,0.8911 7.551724,-1.2612 0.117112,-1.0555 -0.196049,-5.0396 0.863256,-5.1339 3.313593,-0.2907 12.306513,-1.3154 13.760788,-0.085 0.408599,0.4771 0.0883,2.7538 0.886657,3.6931 0.736091,0.8656 2.450192,0.4211 5.9438,0.3438 3.242578,-0.089 6.715538,0.1914 7.109214,1.2243 0.473316,1.236 -0.0074,1.2799 -2.414258,2.5886 -0.115269,6.1973 -0.08794,14.3725 0.178043,16.7186 0.218168,1.9254 4.023253,1.3817 6.220698,1.4504 5.467167,0.1276 5.602625,0.1808 5.609959,2.2572 0.0074,1.8279 -0.418995,2.1962 -3.035654,2.629 -7.903497,-0.7078 -10.465871,0.4934 -14.006579,0.5207 -1.43826,0 -3.013872,-0.6674 -3.832197,-1.6227 -2.031198,-2.3724 -3.173665,0.5228 -7.521096,0.4923 -32.652067,0.3988 -54.75797,1.5058 -54.668073,0 0.09999,-1.6776 1.753368,-3.5257 5.477499,-6.076 2.834905,-1.941 4.266303,-2.8573 4.325409,-6.0587 -0.236245,-2.1519 0.04824,-4.9376 0.498304,-6.6642 0.38507,-0.8074 0.956226,-1.8623 1.500893,-2.5754 0.544632,-0.7132 0.200941,-1.9889 0.308376,-2.337 0.107365,-0.3473 0.03226,-1.9973 -0.0202,-4.3506 0.998678,-7.703 0.434411,-12.4775 2.751475,-18.046 0.136076,-0.3261 5.281677,-0.9652 6.095532,-0.9273 0.813852,0.035 0.78848,-2.42444 -3.251308,-6.11645 z m -2.752022,50.5986 c -0.557899,-0.1985 -2.463519,-1.0244 -2.463519,-1.6568 0,-1.275 -0.719442,-1.4412 -2.188845,-0.5072 -1.262415,0.8025 -1.80587,3.2617 0.261517,3.708 1.841639,0.3977 5.93777,-0.9911 4.390868,-1.544 z m 21.732766,-1.2126 c 0.320499,-1.6763 -3.043289,-2.3721 -4.332055,-1.594 -2.160283,1.3044 -3.309258,3.0267 -0.908774,3.4967 0.955995,0.1878 1.786896,0.3899 1.846459,0.4505 0.05944,0.057 3.181069,-1.2371 3.39437,-2.3532 z m -5.786358,-2.4451 c 5.225102,-3.4669 4.120934,-11.3216 1.399738,-14.7875 -2.721198,-3.4655 -12.053421,-3.5403 -15.856369,-0.7922 -3.802914,2.7484 -4.498158,8.6916 -2.483837,13.2626 2.01435,4.5708 11.715398,5.7841 16.940468,2.3171 z m 13.578538,0.3577 c 1.532322,0.053 3.051927,0.2942 3.777143,-0.4474 1.68095,-1.7184 0.410354,-7.7838 1.192634,-9.0613 0.782276,-1.2774 1.418911,-1.2104 2.267811,-0.1276 0.848903,1.0808 0.176838,8.0192 0.183714,8.9242 2.464612,0.5377 5.90957,0.4639 7.140361,0.2516 1.282956,0.036 0.841233,-3.5247 0.614534,-7.9047 -0.104706,-2.0239 -0.240038,-3.7484 1.419145,-3.6576 1.659047,0.092 0.202465,11.1866 1.180259,11.2327 3.254765,0.1878 4.905273,0.3917 5.44703,-0.6628 0.78071,-1.52 0.05583,-5.934 0.0996,-9.5835 0.08645,-4.2967 -0.06384,-6.165 -2.087017,-6.165 -1.020141,0 -5.580699,0.117 -6.89149,0 -1.711252,-0.1312 -0.712782,-4.7253 -1.184527,-5.3126 -0.44632,-0.5558 -7.208094,-0.1524 -9.788896,0 -0.828753,0.046 -0.283033,0.2694 -0.50712,3.3999 -0.200374,2.8002 0.848932,3.1753 -5.740718,3.3482 -2.721366,0.075 -5.332279,1.6234 -4.31279,2.6425 0.24142,0.241 0.527185,1.8219 0.635312,3.5127 0.158725,2.4804 -0.496298,8.6313 0.890896,8.7334 0.600895,0.046 2.086659,0.8315 2.659942,-0.7525 0.649753,-1.795 0.360659,-6.0392 0.542395,-6.9477 0.484272,-2.4209 2.151503,-2.3944 2.631582,-1.7131 0.480106,0.6813 -0.219586,8.6689 -0.169926,10.2884 z M 34.63179,1019.4044 c 0.108783,-2.4341 0.540988,-6.8559 2.255869,-6.7652 1.907171,0.1028 1.333399,4.0249 1.179686,7.2019 -0.118814,2.4539 -3.627617,3.8579 -3.435555,-0.4367 z"
       id="path5162"
       inkscape:connector-curvature="0"
       sodipodi:nodetypes="cccccssszzsssccccsssssccscscscscsccccscsscczzcczssssssssscszzzzzsszzccszcscsssssscsssszcsssss" />
  </g>
</svg>
