<?xml version="1.0" encoding="UTF-8" standalone="no"?>
<!-- Created with Inkscape (http://www.inkscape.org/) -->

<svg
   xmlns:dc="http://purl.org/dc/elements/1.1/"
   xmlns:cc="http://creativecommons.org/ns#"
   xmlns:rdf="http://www.w3.org/1999/02/22-rdf-syntax-ns#"
   xmlns:svg="http://www.w3.org/2000/svg"
   xmlns="http://www.w3.org/2000/svg"
   xmlns:sodipodi="http://sodipodi.sourceforge.net/DTD/sodipodi-0.dtd"
   xmlns:inkscape="http://www.inkscape.org/namespaces/inkscape"
   width="100"
   height="100"
   viewBox="0 0 99.999997 99.999997"
   id="svg4999"
   version="1.1"
   inkscape:version="0.91 r13725"
   sodipodi:docname="caste-1.svg">
  <defs
     id="defs5001" />
  <sodipodi:namedview
     id="base"
     pagecolor="#ffffff"
     bordercolor="#666666"
     borderopacity="1.0"
     inkscape:pageopacity="0.0"
     inkscape:pageshadow="2"
     inkscape:zoom="2.8"
     inkscape:cx="-27.905176"
     inkscape:cy="49.516607"
     inkscape:document-units="px"
     inkscape:current-layer="layer1"
     showgrid="false"
     units="px"
     inkscape:window-width="1920"
     inkscape:window-height="1027"
     inkscape:window-x="0"
     inkscape:window-y="0"
     inkscape:window-maximized="1"
     showguides="true"
     inkscape:guide-bbox="true">
    <sodipodi:guide
       position="59.642855,2.1428571"
       orientation="0,1"
       id="guide5615" />
    <sodipodi:guide
       position="3.2142856,-43.571427"
       orientation="1,0"
       id="guide5617" />
    <sodipodi:guide
       position="97.499997,3.2142856"
       orientation="1,0"
       id="guide5619" />
  </sodipodi:namedview>
  <metadata
     id="metadata5004">
    <rdf:RDF>
      <cc:Work
         rdf:about="">
        <dc:format>image/svg+xml</dc:format>
        <dc:type
           rdf:resource="http://purl.org/dc/dcmitype/StillImage" />
        <dc:title></dc:title>
      </cc:Work>
    </rdf:RDF>
  </metadata>
  <g
     inkscape:label="Calque 1"
     inkscape:groupmode="layer"
     id="layer1"
     transform="translate(0,-952.36223)">
    <path
       style="fill:#000000"
       d="m 49.045191,1048.8952 c -0.95185,-1.147 -0.126909,-2.884 2.022597,-4.2582 0.646243,-0.4131 0.708896,-0.9877 0.209592,-1.921 -1.022611,-1.9106 -4.186492,-1.128 -7.53298,1.8639 -1.503132,1.3438 -3.497078,2.6353 -4.430985,2.8699 -1.965708,0.4932 -5.676189,-0.7236 -5.676189,-1.8613 0,-0.4263 -1.073089,-0.7736 -2.384611,-0.7724 -3.788882,0 -9.44173,-0.565 -10.735868,-1.0816 -1.91126,-0.7624 -4.370908,-1.1239 -9.542009,-1.403 -2.6686723,-0.1442 -5.4299373,-0.2949 -6.1361508,-0.3343 -0.7062103,-0.038 -1.2840118,-0.3567 -1.2840118,-0.7044 0,-0.3474 1.9224091,-0.8063 4.2720145,-1.0194 5.7525781,-0.5214 10.4024421,-2.9058 10.4024421,-5.3341 0,-1.0005 0.263849,-1.8196 0.586326,-1.8196 0.32249,0 0.999957,-1.1435 1.5055,-2.5417 0.768534,-2.1251 1.363843,-2.6129 3.632576,-2.9744 3.721449,-0.5929 4.852548,-1.3139 5.28144,-3.3669 0.816621,-3.9086 1.397239,-4.2012 9.425184,-4.754 l 7.584033,-0.5227 -0.144535,2.1273 c -0.07948,1.1698 -0.109604,2.7908 -0.06666,3.6016 0.09582,1.818 2.870548,3.7307 3.907645,2.6936 0.397103,-0.3974 0.826511,-4.8786 0.954189,-9.9585 0.12755,-5.0799 0.455431,-10.2527 0.728349,-11.4952 0.416813,-1.8979 0.250613,-2.3232 -1.040718,-2.661 -2.849012,-0.7451 -1.565564,-1.3835 3.036843,-1.5113 6.203929,-0.1699 6.523477,-0.7083 6.333626,-10.63475 -0.083,-4.34246 -0.408031,-7.89496 -0.722163,-7.89496 -0.314068,0 -1.496117,0.86177 -2.626697,1.9155 -1.130548,1.05373 -2.715853,2.22347 -3.522975,2.59939 -0.807091,0.37656 -2.257507,1.13673 -3.223169,1.68956 -1.333378,0.76401 -2.17774,0.81337 -3.510125,0.20831 l -1.754453,-0.79959 2.043011,-0.85888 c 1.123658,-0.47239 2.496006,-1.40498 3.049695,-2.07221 0.553688,-0.66691 1.442853,-1.21269 1.975967,-1.21269 1.237203,0 8.389456,-9.45119 8.389456,-11.08595 0,-0.67685 0.54776,-1.44055 1.217269,-1.69757 1.117409,-0.4288 1.179902,0.69319 0.762096,13.68118 -0.266638,8.28466 -0.173379,14.60386 0.224654,15.24676 0.486196,0.7851 1.986351,1.0979 5.265251,1.0979 l 4.585326,0 0.233628,10.22 c 0.200619,8.7718 0.417197,10.3489 1.529638,11.128 1.040174,0.7287 1.33559,2.1722 1.496533,7.3133 0.118577,3.7851 -0.105437,6.5941 -0.547856,6.8675 -2.826514,1.7469 4.140985,2.759 20.49065,2.9766 1.650618,0.032 3.08719,7.1219 1.559603,7.7084 -0.589166,0.2275 -1.838483,-0.093 -2.776328,-0.706 -1.902738,-1.247 -6.892795,-1.5245 -6.892795,-0.3836 0,0.4035 -1.46628,0.7336 -3.258453,0.7336 -1.792109,0 -3.462502,-0.3301 -3.711897,-0.7336 -0.614035,-0.9935 -6.370481,-0.8461 -11.739566,0.3012 -2.675698,0.5714 -4.579013,0.6714 -4.852829,0.2532 -0.597722,-0.9102 -8.490214,0.042 -11.218374,1.355 -2.585772,1.2434 -2.271479,1.2505 -3.372479,-0.077 z m 12.473332,-5.1193 c 0,-1.6011 -3.539737,-3.7413 -4.537447,-2.7433 -0.436426,0.4361 -0.604741,1.2854 -0.374061,1.8863 0.36153,0.9419 1.077829,1.2444 4.361184,1.8405 0.302531,0.058 0.550324,-0.3874 0.550324,-0.9835 z m -23.088356,-2.127 c 0.468291,-0.64 2.710867,-1.2038 5.81219,-1.4608 2.777353,-0.2307 5.365496,-0.7339 5.751511,-1.1197 0.4346,-0.4346 0.45745,-2.3257 0.05993,-4.9674 -0.516482,-3.4323 -0.928359,-4.3101 -2.109254,-4.4954 -2.690247,-0.4214 -4.599033,-1.7443 -4.304082,-2.9823 0.51668,-2.1687 -0.931986,-3.1721 -5.116933,-3.5445 l -4.113917,-0.366 -0.474726,2.9686 c -0.619778,3.8762 -2.472278,5.5077 -6.091894,5.3661 -3.169719,-0.125 -4.254137,0.7691 -4.909144,4.0441 -0.3922,1.961 -0.167289,2.3276 2.08113,3.3948 1.386466,0.6576 3.645969,1.2473 5.021121,1.3095 1.375149,0.061 3.155215,0.2852 3.955675,0.4912 1.386965,0.3603 1.378347,0.4064 -0.183506,0.9839 -0.901362,0.3333 -1.638831,0.9906 -1.638831,1.4595 0,1.1838 5.269872,0.2724 6.260589,-1.0816 z m 28.357132,-3.2311 c 2.158575,-1.2643 4.520846,-6.4605 4.13967,-9.1057 -0.319837,-2.2206 -4.441336,-4.8899 -7.249615,-4.6953 -1.23387,0.086 -2.408932,-0.1122 -2.611281,-0.44 -0.823659,-1.3329 -3.195897,-0.4452 -5.341364,1.9984 -1.862455,2.1213 -2.277152,3.2273 -2.277152,6.0734 0,2.5722 0.382842,3.8079 1.467433,4.7367 0.807123,0.6909 1.467466,1.0322 1.467466,0.7582 0,-0.2724 0.641724,0.1923 1.426093,1.0329 1.64674,1.7674 5.618737,1.6088 8.97875,-0.3586 z m -5.534036,-18.1336 c 2.314808,-0.6031 4.438291,-1.4678 4.718805,-1.9219 0.280418,-0.4538 0.736105,-3.1189 1.01242,-5.923 0.651403,-6.6108 0.161841,-7.2008 -5.97091,-7.2008 -5.707124,0 -7.856214,0.9354 -7.301499,3.1785 0.216322,0.8749 0.458667,4.1495 0.538434,7.277 0.165687,6.5089 0.01602,6.4102 7.00275,4.5902 z"
       id="path4242"
       inkscape:connector-curvature="0"
       sodipodi:nodetypes="cssssscsscsssssssscscssssssssssscsssssssscsssscssssssssccsssssssssssscsssssssssssscsssssssssssss" />
  </g>
</svg>
