<?xml version="1.0" encoding="UTF-8" standalone="no"?>
<!-- Created with Inkscape (http://www.inkscape.org/) -->

<svg
   xmlns:dc="http://purl.org/dc/elements/1.1/"
   xmlns:cc="http://creativecommons.org/ns#"
   xmlns:rdf="http://www.w3.org/1999/02/22-rdf-syntax-ns#"
   xmlns:svg="http://www.w3.org/2000/svg"
   xmlns="http://www.w3.org/2000/svg"
   xmlns:sodipodi="http://sodipodi.sourceforge.net/DTD/sodipodi-0.dtd"
   xmlns:inkscape="http://www.inkscape.org/namespaces/inkscape"
   width="5.7564321mm"
   height="4.7801347mm"
   viewBox="0 0 20.396806 16.937485"
   id="svg7987"
   version="1.1"
   inkscape:version="0.91 r13725"
   sodipodi:docname="chapel-ruined-1.svg">
  <defs
     id="defs7989" />
  <sodipodi:namedview
     id="base"
     pagecolor="#ffffff"
     bordercolor="#666666"
     borderopacity="1.0"
     inkscape:pageopacity="0.0"
     inkscape:pageshadow="2"
     inkscape:zoom="0.35"
     inkscape:cx="-644.8016"
     inkscape:cy="-62.959829"
     inkscape:document-units="px"
     inkscape:current-layer="layer1"
     showgrid="false"
     fit-margin-top="0"
     fit-margin-left="0"
     fit-margin-right="0"
     fit-margin-bottom="0"
     inkscape:window-width="1920"
     inkscape:window-height="1027"
     inkscape:window-x="0"
     inkscape:window-y="0"
     inkscape:window-maximized="1" />
  <metadata
     id="metadata7992">
    <rdf:RDF>
      <cc:Work
         rdf:about="">
        <dc:format>image/svg+xml</dc:format>
        <dc:type
           rdf:resource="http://purl.org/dc/dcmitype/StillImage" />
        <dc:title></dc:title>
      </cc:Work>
    </rdf:RDF>
  </metadata>
  <g
     inkscape:label="Calque 1"
     inkscape:groupmode="layer"
     id="layer1"
     transform="translate(-461.23017,-452.46489)">
    <path
       sodipodi:nodetypes="cssssssssccccscsccssssccccsscscccsssscccsscccsscsscsscscsccscccccsccccccc"
       inkscape:connector-curvature="0"
       id="path7976"
       d="m 477.15768,454.79027 c 0.5981,-0.256 0.48527,-0.51949 0.23858,-1.14072 -0.42058,-1.05913 -0.31943,-0.90583 -0.0138,-1.12683 0.38971,-0.28182 0.73037,0.52534 0.9522,1.14794 0.24398,0.68478 0.44741,0.96732 0.73766,0.8407 0.86262,-0.37632 2.193,-0.9082 2.37868,-0.61445 0.11901,0.18824 0.56312,0.19827 -0.66759,0.701 -1.25281,0.51176 -1.67716,0.46238 -1.47232,0.94083 0.33546,0.78353 0.89867,1.8289 0.30434,2.12559 -0.60024,0.29966 -0.74867,-2.13498 -1.77741,-2.1639 -1.10684,0.23153 -2.16596,0.67849 -2.78223,1.01194 -0.073,0.21674 -0.22227,0.145 -0.45773,0.1209 -0.28597,-0.1598 -0.46963,-0.1478 -0.52469,-0.3592 0.25338,-0.38329 0.34881,-0.49661 0.68685,-0.6821 0.93665,-0.51396 1.9905,-0.62961 2.3975,-0.8017 z m -9.05497,2.12694 c 0.63876,0.39471 3.87875,0.16276 5.26574,-0.14538 0.49883,-0.11082 0.63962,-0.11519 0.6938,-0.54283 0.0252,-0.24677 0.9201,0.0655 1.01143,0.2271 0.15284,2.08081 1.11549,2.27416 1.84771,3.57099 0.66287,1.17405 1.86572,2.08657 2.13311,2.81249 0,0 -0.0715,1.3552 0.0184,2.26658 0.18831,1.908 0.49007,2.28676 0.94508,2.82474 0.53252,0.62948 0.18045,1.09603 -0.82724,1.09603 -0.78928,-0.13997 -1.70056,0.17755 -2.62178,0.17219 -1.90877,-0.1373 -4.13246,0.25999 -5.50345,0.19628 l -4e-5,0 c -1.33786,-0.0103 -1.4174,-0.31906 -1.4174,-3.16531 0,-2.51586 -0.0816,-2.95844 -1.0041,-5.44527 -0.51814,-1.39678 -1.26077,-1.50989 -2.28146,-0.34737 -0.42681,0.43804 -1.27642,1.32463 -1.56491,1.84871 -0.33284,0.60457 -0.33832,3.81105 -0.15952,5.40791 0.14997,1.25032 0.42665,1.25989 -1.515,1.28511 -1.12356,-0.11713 -1.89291,0.30815 -1.89291,-0.16046 0,-0.67117 0.16988,-0.67621 1.22863,-0.72366 0.67279,-0.0298 0.80674,-1.08625 0.86638,-3.25351 0.0404,-1.47057 0.35325,-1.64472 -0.33164,-2.27029 -0.40745,-0.37217 -1.08595,-0.59593 -1.05826,-0.78685 0.036,-0.24835 0.5797,-0.21501 1.33621,-0.12968 1.16082,0.21644 1.449,-0.71717 2.06784,-1.39832 0.69775,-0.76472 1.06822,-1.65501 1.16397,-3.45043 m 8.66778,9.39406 c 0.0698,-1.36446 0.27697,-1.71059 -0.25269,-2.05765 -0.31542,-0.20667 -0.91891,-0.10951 -1.04128,-0.034 -0.34056,0.21048 -0.28768,3.59049 0.0729,3.88969 1.07262,0.4013 1.12722,-0.34953 1.22107,-1.79818 z m 2.37179,1.08522 c 0.0781,-0.47221 -5e-5,-1.68403 0.002,-2.09326 0.002,-0.67466 -0.0615,-0.74403 -0.68432,-0.74403 -0.67865,0 -0.68685,0.0144 -0.68685,1.24043 0,1.51565 -0.10996,1.96481 0.41565,1.96481 0.28834,0 0.85276,0.24568 0.95418,-0.36795 z m -5.07385,-0.58378 c 0,-0.71233 0.18695,-1.82936 -0.19242,-2.31877 -0.15096,-0.19462 -0.54643,-0.16951 -0.84275,-0.16375 -0.4702,0.0103 -0.52658,0.10859 -0.52658,1.01514 0,0.93156 0.0518,2.86261 0.6296,2.9501 0.82454,0.21541 0.92774,-0.75608 0.93215,-1.48272 z m 4.51936,-4.23994 c -0.0323,-0.84212 -2.75378,-4.9817 -3.37396,-4.85366 -1.11947,0.32606 -4.92024,-0.10581 -4.99663,0.52645 0,0.1513 0.19505,0.68074 0.43346,1.17652 0.66568,1.3274 1.04692,3.05127 1.48322,4.12569 l 2.04299,-0.23878 c 1.37859,-0.35365 4.17886,-0.28593 4.41092,-0.73622 z m -9.57255,6.84493 c -0.63463,0.0103 -0.70698,-3.74724 -0.0851,-4.51422 0.241,-0.29735 0.73651,-0.16077 0.82632,-0.071 0.26835,0.2674 0.43577,1.80538 0.4508,3.33287 0.0146,1.47942 -0.005,1.24074 -1.192,1.25268 z"
       style="fill:#000000" />
  </g>
</svg>
