<?xml version="1.0" encoding="UTF-8" standalone="no"?>
<!-- Created with Inkscape (http://www.inkscape.org/) -->

<svg
   xmlns:dc="http://purl.org/dc/elements/1.1/"
   xmlns:cc="http://creativecommons.org/ns#"
   xmlns:rdf="http://www.w3.org/1999/02/22-rdf-syntax-ns#"
   xmlns:svg="http://www.w3.org/2000/svg"
   xmlns="http://www.w3.org/2000/svg"
   xmlns:sodipodi="http://sodipodi.sourceforge.net/DTD/sodipodi-0.dtd"
   xmlns:inkscape="http://www.inkscape.org/namespaces/inkscape"
   width="100"
   height="100"
   viewBox="0 0 99.999997 99.999997"
   id="svg4999"
   version="1.1"
   inkscape:version="0.91 r13725"
   sodipodi:docname="chapel-1.svg">
  <defs
     id="defs5001" />
  <sodipodi:namedview
     id="base"
     pagecolor="#ffffff"
     bordercolor="#666666"
     borderopacity="1.0"
     inkscape:pageopacity="0.0"
     inkscape:pageshadow="2"
     inkscape:zoom="2.8"
     inkscape:cx="-4.8454422"
     inkscape:cy="44.957218"
     inkscape:document-units="px"
     inkscape:current-layer="layer1"
     showgrid="false"
     units="px"
     inkscape:window-width="1920"
     inkscape:window-height="1027"
     inkscape:window-x="0"
     inkscape:window-y="0"
     inkscape:window-maximized="1"
     showguides="true"
     inkscape:guide-bbox="true">
    <sodipodi:guide
       position="59.642855,2.1428571"
       orientation="0,1"
       id="guide5615" />
    <sodipodi:guide
       position="3.2142856,-43.571427"
       orientation="1,0"
       id="guide5617" />
    <sodipodi:guide
       position="97.499997,3.2142856"
       orientation="1,0"
       id="guide5619" />
  </sodipodi:namedview>
  <metadata
     id="metadata5004">
    <rdf:RDF>
      <cc:Work
         rdf:about="">
        <dc:format>image/svg+xml</dc:format>
        <dc:type
           rdf:resource="http://purl.org/dc/dcmitype/StillImage" />
        <dc:title></dc:title>
      </cc:Work>
    </rdf:RDF>
  </metadata>
  <g
     inkscape:label="Calque 1"
     inkscape:groupmode="layer"
     id="layer1"
     transform="translate(0,-952.36223)">
    <path
       style="fill:#000000"
       d="m 52.094741,1050.4207 c -6.656262,-0.05 -7.051997,-1.5875 -7.051997,-15.7488 0,-12.5168 -0.405985,-14.7189 -4.995703,-27.0915 -2.577905,-6.9495 -6.272713,-7.5121 -11.350956,-1.7283 -2.12351,2.1791 -6.350578,6.5902 -7.785904,9.1978 -1.65598,3.008 -1.683245,18.9613 -0.793661,26.9059 0.746146,6.2207 2.122713,6.2683 -7.537586,6.3938 -5.5900531,-0.5827 -9.4178036,1.5334 -9.4178036,-0.798 0,-3.3395 0.8452047,-3.3644 6.1128083,-3.6007 3.3473353,-0.1493 4.0137773,-5.4041 4.3105043,-16.1872 0.201003,-7.3167 1.757526,-8.1828 -1.650009,-11.2953 -2.0271888,-1.8519 -5.4029328,-2.9649 -5.2651667,-3.9147 0.1791109,-1.2359 2.884184,-1.0696 6.6480517,-0.6453 5.775433,1.0767 7.209216,-3.5682 10.288133,-6.9569 4.012633,-4.3977 6.059622,-12.35817 6.059622,-23.56456 0,-4.79918 1.019241,-7.8774 -0.657436,-9.67746 -2.206399,-2.36825 -4.815398,-1.96277 -11.01806,-3.3434 -5.53438,-1.23139 -5.093419,-4.05687 1.485924,-4.44047 5.488059,-0.31841 9.000574,2.43094 9.868268,-0.74082 0.514247,-1.87917 -0.01,-7.31668 0.949238,-8.56648 1.493189,-1.94982 1.893104,-2.03091 2.816918,-0.56917 0.592111,0.93635 1.091432,3.24091 1.109642,5.12008 0.06517,6.73259 0.270657,6.85 4.802062,8.41225 3.801979,1.311 7.114287,3.11354 7.033688,4.04541 -0.287573,3.3255 -2.792141,1.19408 -7.910287,1.0503 -2.059674,-0.0548 -3.215985,-0.30848 -2.784527,7.49778 0.171151,3.09115 0.473152,5.92061 1.051283,6.27833 3.178023,1.96375 20.240183,2.69363 27.14098,1.16124 3.657993,-0.81296 3.702025,-0.90152 3.702025,-7.44703 0,-3.64391 1.349402,-7.20972 2.048033,-7.24306 1.818673,-0.0845 2.018929,2.95285 2.73398,12.68703 0.760426,10.35311 5.549903,11.7467 9.19292,18.19863 3.29798,5.8416 9.282525,10.3815 10.612872,13.9931 0,0 -0.355735,6.7425 0.09154,11.277 0.9369,9.4929 2.438248,11.3775 4.702061,14.0542 2.649449,3.1315 0.897793,5.453 -4.11577,5.453 -3.92691,-0.6965 -8.460804,0.8831 -13.044155,0.8567 -9.496711,-0.6831 -20.560246,1.2936 -27.381339,0.9766 z m 20.426659,-15.898 c 0.347276,-6.7889 1.37801,-8.5107 -1.25721,-10.2377 -1.56931,-1.0279 -4.571856,-0.5447 -5.180685,-0.1691 -1.69439,1.0473 -1.431296,17.8638 0.362699,19.3523 5.336612,1.9967 5.608264,-1.7388 6.075196,-8.946 z m 11.800378,5.3992 c 0.388571,-2.3493 -2.49e-4,-8.3784 0.01,-10.4144 0.01,-3.3568 -0.305981,-3.702 -3.404699,-3.702 -3.376491,0 -3.417288,0.07 -3.417288,6.1718 0,7.5406 -0.547085,9.7755 2.067985,9.7755 1.43458,0 4.242741,1.222 4.747336,-1.8309 z m -25.24395,-2.9045 c 0,-3.544 0.930134,-9.1015 -0.957347,-11.5363 -0.751072,-0.9687 -2.718656,-0.8434 -4.192939,-0.815 -2.339388,0.05 -2.619895,0.5403 -2.619895,5.051 0,4.6345 0.25772,14.2423 3.132451,14.6776 4.102338,1.0717 4.61579,-3.7618 4.63773,-7.3773 z m 22.485193,-21.0948 c -0.160702,-4.1898 -13.700894,-24.78556 -16.786479,-24.14871 -5.569703,1.62246 -24.479692,-0.5264 -24.859755,2.61954 0,0.75267 0.970434,3.3866 2.156596,5.85347 3.311961,6.6041 5.208746,15.1811 7.379471,20.5265 l 10.164496,-1.1881 c 6.858905,-1.7593 20.791102,-1.4224 21.945671,-3.6627 z m -47.626349,34.0554 c -3.157477,0.05 -3.51744,-18.6435 -0.423398,-22.4595 1.199049,-1.4792 3.664361,-0.8001 4.111191,-0.3533 1.335123,1.3304 2.168088,8.9824 2.242868,16.5822 0.07264,7.3604 -0.02487,6.1729 -5.930562,6.2325 z"
       id="path4869"
       inkscape:connector-curvature="0"
       sodipodi:nodetypes="csscscccssssccsssssssssssssssssssssccccsscccssssscsssccsccccccccsssc" />
  </g>
</svg>
