<?xml version="1.0" encoding="UTF-8" standalone="no"?>
<!-- Created with Inkscape (http://www.inkscape.org/) -->

<svg
   xmlns:dc="http://purl.org/dc/elements/1.1/"
   xmlns:cc="http://creativecommons.org/ns#"
   xmlns:rdf="http://www.w3.org/1999/02/22-rdf-syntax-ns#"
   xmlns:svg="http://www.w3.org/2000/svg"
   xmlns="http://www.w3.org/2000/svg"
   xmlns:sodipodi="http://sodipodi.sourceforge.net/DTD/sodipodi-0.dtd"
   xmlns:inkscape="http://www.inkscape.org/namespaces/inkscape"
   width="5.8155627mm"
   height="3.5415678mm"
   viewBox="0 0 20.606325 12.548862"
   id="svg9215"
   version="1.1"
   inkscape:version="0.91 r13725"
   sodipodi:docname="gallow-1.svg">
  <defs
     id="defs9217" />
  <sodipodi:namedview
     id="base"
     pagecolor="#ffffff"
     bordercolor="#666666"
     borderopacity="1.0"
     inkscape:pageopacity="0.0"
     inkscape:pageshadow="2"
     inkscape:zoom="0.35"
     inkscape:cx="1141.0177"
     inkscape:cy="-750.86842"
     inkscape:document-units="px"
     inkscape:current-layer="layer1"
     showgrid="false"
     fit-margin-top="0"
     fit-margin-left="0"
     fit-margin-right="0"
     fit-margin-bottom="0"
     inkscape:window-width="1920"
     inkscape:window-height="1027"
     inkscape:window-x="0"
     inkscape:window-y="0"
     inkscape:window-maximized="1" />
  <metadata
     id="metadata9220">
    <rdf:RDF>
      <cc:Work
         rdf:about="">
        <dc:format>image/svg+xml</dc:format>
        <dc:type
           rdf:resource="http://purl.org/dc/dcmitype/StillImage" />
        <dc:title></dc:title>
      </cc:Work>
    </rdf:RDF>
  </metadata>
  <g
     inkscape:label="Calque 1"
     inkscape:groupmode="layer"
     id="layer1"
     transform="translate(1324.5891,231.05508)">
    <path
       style="fill:#000000"
       d="m -1318.5857,-228.58756 c 0,-0.81114 -0.024,-0.84243 -0.5579,-0.63936 -0.4521,0.17178 -4.3307,1.9362 -4.2063,2.01833 0.1409,0.0926 3.3088,0.0731 4.7152,0.0144 -0.046,-0.30023 0.043,-0.92353 0.049,-1.39276 z m 0.6227,1.81609 c 0.02,0.64461 0.039,1.13483 0.045,1.26205 0.01,0.10086 1.4528,0.0823 1.4522,0.0319 0,-0.10302 0.018,-0.65881 0.04,-1.29405 -0.5147,-0.036 -1.0728,-0.0103 -1.5376,5.1e-4 z m 1.5684,-0.88329 c 0.016,-1.30589 0.06,-2.72583 -0.039,-2.81928 -0.3085,-0.29117 -1.4103,-0.0772 -1.5487,-0.0566 -0.073,0.0103 -0.036,1.85664 0.01,3.31393 0.5269,-0.035 1.1737,0.034 1.5763,-0.035 z m 0.7319,0.31937 c -0.01,0 -0.015,0.10735 0.1299,0.10684 0.3964,0 1.9565,0.0648 2.5215,0.0669 0.3233,0.0175 0.2731,-0.45246 0.2731,-0.88772 0,-0.29024 -0.8973,-0.86044 -1.3222,-1.22366 -0.556,-0.4753 -2.0108,-1.24517 -1.6152,-1.04766 -0.089,1.13093 -0.01,1.85747 0.013,2.98479 z m 3.1757,-1.29447 c 0.9367,0.036 1.3279,0.0103 2.0345,0.13318 0.172,0.0309 0.107,1.2037 0.109,2.30312 0,1.93991 0.02,2.0031 0.5758,2.14256 0.8046,0.20194 0.7933,0.98848 -0.012,0.83461 -0.5747,-0.10992 -0.5822,-0.0937 -0.4519,0.99167 0.2189,2.10911 2.2668,0.99105 4.0617,2.07391 0.4743,0.29065 2.1871,0.91921 2.1871,1.32061 0,0.4014 -0.8951,0.32246 -1.3596,0.30846 -0.5383,-0.0165 -1.5513,-0.45163 -1.5513,-0.45163 -0.544,-0.15829 -2.0728,-0.72705 -2.0728,-0.84109 0,-0.28757 -2.2842,-0.57616 -2.5395,-0.32081 -0.1142,0.11404 -0.563,0.16591 -0.9973,0.11517 l -0.7899,-0.0926 0.045,-1.97953 0.045,-1.97963 -0.8013,-0.0751 c -0.4407,-0.0412 -0.9559,-0.21357 -1.1448,-0.38278 -0.1888,-0.1692 -0.704,-0.34139 -1.1447,-0.38277 -1.2348,-0.23312 -2.5359,0.11929 -2.5412,-0.12526 l 0,1.1e-4 0.1421,-1.65275 -1.3118,0.0103 c -1.1509,0.0103 -1.4467,-0.0669 -1.6756,0.13843 -0.1383,0.39657 -0.1083,2.30477 -0.1083,3.27874 0,1.93537 0.086,2.0421 1.663,2.04992 0.8221,0 3.7155,1.22891 3.7155,1.70236 0,0.0978 -0.5666,0.17806 -1.2591,0.17806 -0.755,-0.12752 -2.4951,-0.57905 -2.9756,-0.76946 -0.8998,-0.35653 -1.6906,-0.73467 -3.5298,-0.74372 -0.3743,-0.0154 -0.424,0.20337 -0.4078,-2.71008 0.02,-3.56569 -0.1821,-3.56908 0.7111,-3.78584 0.6143,-0.60941 2.353,-1.23529 3.672,-1.86148 0.7962,-0.37793 1.6364,-0.62968 1.6302,-0.9295 0.069,-0.88967 -0.2029,-0.92199 1.4348,-0.9224 l 1.3536,0.0401 c 0.1222,0 0.087,0.16396 0.093,0.31845 1.2695,0.46604 2.8377,2.11415 3.1994,2.06608 z m -9.9535,2.20699 c -0.072,-0.28427 -0.9336,-0.16385 -0.9965,-0.11033 -0.5016,0.4262 -0.7041,4.64741 -0.2065,5.08113 0.3313,0.2888 0.8031,0.24063 1.0157,-0.0762 0.4197,-0.62485 0.4125,-4.00455 0.1873,-4.89473 z m 11.5153,-1.05898 c 0,-0.47448 -0.9187,-0.44453 -1.1463,-0.23189 -0.1199,2.27225 -0.3818,4.58761 -0.4601,6.92058 0.051,0.29642 1.5294,0.0762 1.5707,-0.0381 0.4908,-1.36034 -0.042,-4.73654 0.036,-6.6504 z m -2.0509,2.33348 c 0.016,-0.28108 0.069,-1.16715 0.08,-1.37845 0.013,-0.23992 -0.9626,-0.17754 -1.5583,-0.17754 -0.6335,0 -1.1601,-0.14266 -1.179,-0.0165 -0.019,0.12598 -0.01,0.8978 -0.021,1.04395 -0.029,0.34171 1.3498,0.4294 2.0942,0.34716 0.4172,-0.0463 0.565,0.50155 0.5838,0.18166 z"
       id="path4322"
       inkscape:connector-curvature="0"
       sodipodi:nodetypes="sssccssssccscsccscsscssccscsscscczssccsscssscsscscscscsccscscsccssssscccsccssssssc" />
  </g>
</svg>
