<?xml version="1.0" encoding="UTF-8" standalone="no"?>
<!-- Created with Inkscape (http://www.inkscape.org/) -->

<svg
   xmlns:dc="http://purl.org/dc/elements/1.1/"
   xmlns:cc="http://creativecommons.org/ns#"
   xmlns:rdf="http://www.w3.org/1999/02/22-rdf-syntax-ns#"
   xmlns:svg="http://www.w3.org/2000/svg"
   xmlns="http://www.w3.org/2000/svg"
   xmlns:sodipodi="http://sodipodi.sourceforge.net/DTD/sodipodi-0.dtd"
   xmlns:inkscape="http://www.inkscape.org/namespaces/inkscape"
   width="100"
   height="100"
   viewBox="0 0 99.999997 99.999997"
   id="svg4999"
   version="1.1"
   inkscape:version="0.91 r13725"
   sodipodi:docname="hamlet-3.svg">
  <defs
     id="defs5001" />
  <sodipodi:namedview
     id="base"
     pagecolor="#ffffff"
     bordercolor="#666666"
     borderopacity="1.0"
     inkscape:pageopacity="0.0"
     inkscape:pageshadow="2"
     inkscape:zoom="2.8"
     inkscape:cx="36.522314"
     inkscape:cy="50.32881"
     inkscape:document-units="px"
     inkscape:current-layer="layer1"
     showgrid="false"
     units="px"
     inkscape:window-width="1920"
     inkscape:window-height="1027"
     inkscape:window-x="0"
     inkscape:window-y="0"
     inkscape:window-maximized="1"
     showguides="true"
     inkscape:guide-bbox="true">
    <sodipodi:guide
       position="59.642855,2.1428571"
       orientation="0,1"
       id="guide5615" />
    <sodipodi:guide
       position="3.2142856,-43.571427"
       orientation="1,0"
       id="guide5617" />
    <sodipodi:guide
       position="97.499997,3.2142856"
       orientation="1,0"
       id="guide5619" />
  </sodipodi:namedview>
  <metadata
     id="metadata5004">
    <rdf:RDF>
      <cc:Work
         rdf:about="">
        <dc:format>image/svg+xml</dc:format>
        <dc:type
           rdf:resource="http://purl.org/dc/dcmitype/StillImage" />
        <dc:title></dc:title>
      </cc:Work>
    </rdf:RDF>
  </metadata>
  <g
     inkscape:label="Calque 1"
     inkscape:groupmode="layer"
     id="layer1"
     transform="translate(0,-952.36223)">
    <path
       style="fill:#000000"
       d="m 43.990416,1048.6247 c 0.295049,-0.8977 1.070617,-2.8915 1.722891,-4.4305 0.652273,-1.5393 1.36465,-3.3913 1.583025,-4.1162 0.218454,-0.7245 1.108916,-1.4217 1.9789,-1.5499 1.218806,-0.1758 1.581775,0.4858 1.581775,2.8954 0,1.7199 0.370472,3.3561 0.823089,3.6356 1.211459,0.7487 5.709647,-3.0842 6.711367,-5.7193 0.557506,-1.4659 1.446092,-2.158 2.49545,-1.9411 1.307361,0.2697 1.575836,1.1513 1.357656,4.4594 -0.149674,2.2681 -0.39138,4.2428 -0.53695,4.3886 -0.146157,0.1446 -2.541838,0.3556 -5.324638,0.4635 -3.629728,0.1406 -5.404047,0.6717 -6.278447,1.8726 -0.690258,0.9485 -2.396813,1.6742 -3.934976,1.6742 -2.169489,0 -2.608077,-0.3283 -2.179142,-1.6323 z m 28.786541,-0.2345 c -2.089064,0 -1.265115,-2.1119 1.510417,-3.8716 2.922938,-1.8535 4.480758,-5.8361 3.976596,-10.1665 -0.502991,-4.3198 -0.860137,-4.815 -4.911843,-4.6755 -4.833918,0.5053 -8.389317,1.7793 -8.755217,-1.4205 0.339209,-4.7907 0.831413,-7.6631 0.771895,-9.8386 -1.497403,-2.0767 -9.304086,-1.5237 -11.514687,-0.517 -2.130253,0.9707 -2.22588,1.3435 -1.650125,6.4328 0.681818,6.0265 0.983979,5.7982 -7.1786,5.4207 -2.626366,-0.1211 -3.660835,0.2619 -4.145301,1.5417 -0.355231,0.9371 -1.214312,2.2791 -1.909456,2.9822 -0.695182,0.7034 -1.506742,2.4928 -1.80355,3.9763 -0.363829,1.8207 -1.259371,2.8789 -2.752475,3.2537 -1.217087,0.3009 -2.212906,1.1501 -2.212906,1.8762 0,1.6308 -2.824614,2.7297 -8.64544,3.3636 -1.353318,0.1133 -6.767408,-3.0588 -10.990438,-2.8028 -1.876512,0.1133 -1.491971,2.3612 -2.9756569,2.8508 -3.1982918,1.056 -7.2503499,0.5378 -6.2242438,-0.7003 0,-0.4681 2.8890962,-1.3162 3.9792533,-2.0798 2.2340092,-1.5643 0.055493,-5.5535 -1.3308077,-7.7943 -1.0642475,-1.7203 -1.5478543,-6.8671 0.2587052,-8.6737 2.8852664,-2.8848 5.3480459,-7.7596 5.9926599,-11.8606 1.226153,-7.801 0.394975,-14.643 -1.990623,-16.38711 -1.2629663,-0.92344 -0.4645755,-1.22943 4.630705,-1.77537 4.255154,-0.45567 6.401664,-1.129 6.949635,-2.17985 0.825629,-1.58388 1.058972,-5.01114 1.326001,-19.47675 0.750518,-9.55255 0.719997,-10.98051 1.680841,-11.04304 1.599634,-0.10551 1.41346,11.91334 1.103053,17.1613 -0.567002,9.33488 -0.523311,13.92944 0.137169,14.41324 0.533159,0.3908 4.222402,0.4416 8.198333,0.11333 5.814615,-0.48067 7.226121,0.53305 7.214632,1.56787 -0.01954,1.81758 -1.466921,2.61248 -4.522613,2.72378 -2.912231,0.1095 -1.090704,9.104 -1.453438,14.8729 -0.07933,4.6211 1.139241,11.3889 4.209938,10.9629 2.440583,-0.34 4.191767,0.6108 6.690695,-1.4608 0.392161,-0.383 0.863692,-2.7078 1.04803,-5.1698 0.184063,-2.4616 0.912815,-4.8415 1.618978,-5.2886 0.706164,-0.4475 4.222171,-0.807 7.813288,-0.7996 3.591117,0 8.208302,-0.4084 10.260397,-0.925 7.548642,-1.8992 7.928532,-1.6792 7.928532,4.5957 0,5.0354 0.207902,5.631 2.135139,6.1148 6.493531,0.074 12.14327,0.449 15.177937,0.8152 1.259956,4.9603 0.409082,9.8964 0.409395,10.8105 0,6.3426 0.06682,6.529 2.331903,6.529 1.969129,0 2.331942,0.4353 2.331942,2.7985 0,2.0723 -0.435305,2.798 -1.679005,2.798 -6.254257,2.0083 -18.749905,2.038 -23.039214,0.9329 z m 14.411826,-5.572 c 2.052564,-1.0985 3.096295,-4.7586 2.282116,-8.0026 -0.521397,-2.0771 -1.026575,-2.3456 -3.955767,-2.0986 -4.21505,-0.1094 -3.413884,0.066 -3.066508,4.9436 0.347024,5.5481 1.554998,6.8623 4.740159,5.1576 z m -56.496361,-3.7617 c 3.880226,-3.1084 4.214628,-9.0148 1.246044,-13.5531 -2.968621,-4.5375 -9.157848,-6.6052 -16.169658,-1.9798 -7.0117702,4.6254 -5.451528,12.8864 -1.031694,15.9784 4.419873,3.0919 12.075084,2.6632 15.955308,-0.4455 z M 28.628644,1011.25 c 0.068,-3.2753 -0.902224,-7.8171 -1.878504,-8.7929 -1.131581,-1.1321 -6.423665,-1.3588 -8.962689,-0.383 -1.417446,0.5436 -1.59639,1.6062 -1.290517,7.6643 0.358749,7.1081 -1.337685,9.4435 6.67139,8.728 5.755095,0.6299 5.227485,-3.4687 5.46032,-7.2153 z m 6.582873,33.6422 c 0.788347,-0.8973 1.721171,-2.5765 2.072924,-3.7305 0.351714,-1.1548 1.001057,-2.0994 1.442848,-2.0994 1.034274,0 3.734852,2.6914 3.734852,3.7219 0,0.4342 0.254797,1.4534 0.566142,2.2647 0.472117,1.231 -0.249717,1.476 -4.342027,1.476 -4.598622,0 -4.817739,-0.1055 -3.474739,-1.6327 z m 31.830509,-1.3991 c 0.265739,-0.6409 0.996992,-2.7398 1.624489,-4.6637 0.887726,-2.7215 1.625974,-3.4976 3.325339,-3.4976 2.535389,0 2.9356,2.6734 1.01829,6.8022 -0.862403,1.8566 -1.85408,2.5128 -3.808789,2.5179 -1.752161,0 -2.479897,-0.3869 -2.159329,-1.1588 z"
       id="path4809"
       inkscape:connector-curvature="0"
       sodipodi:nodetypes="ssssssssscsssscsscccsssssssscsscssssssscscsscscscsscsscccssccssccszzzzzcsssccssssssssssscs" />
  </g>
</svg>
