<?xml version="1.0" encoding="UTF-8" standalone="no"?>
<!-- Created with Inkscape (http://www.inkscape.org/) -->

<svg
   xmlns:dc="http://purl.org/dc/elements/1.1/"
   xmlns:cc="http://creativecommons.org/ns#"
   xmlns:rdf="http://www.w3.org/1999/02/22-rdf-syntax-ns#"
   xmlns:svg="http://www.w3.org/2000/svg"
   xmlns="http://www.w3.org/2000/svg"
   xmlns:sodipodi="http://sodipodi.sourceforge.net/DTD/sodipodi-0.dtd"
   xmlns:inkscape="http://www.inkscape.org/namespaces/inkscape"
   width="5.7006078mm"
   height="6.1224852mm"
   viewBox="0 0 20.199004 21.693845"
   id="svg6777"
   version="1.1"
   inkscape:version="0.91 r13725"
   sodipodi:docname="hamlet-1.svg">
  <defs
     id="defs6779" />
  <sodipodi:namedview
     id="base"
     pagecolor="#ffffff"
     bordercolor="#666666"
     borderopacity="1.0"
     inkscape:pageopacity="0.0"
     inkscape:pageshadow="2"
     inkscape:zoom="5.6"
     inkscape:cx="-28.846015"
     inkscape:cy="23.786184"
     inkscape:document-units="px"
     inkscape:current-layer="layer1"
     showgrid="false"
     fit-margin-top="0"
     fit-margin-left="0"
     fit-margin-right="0"
     fit-margin-bottom="0"
     inkscape:window-width="1920"
     inkscape:window-height="1027"
     inkscape:window-x="0"
     inkscape:window-y="0"
     inkscape:window-maximized="1" />
  <metadata
     id="metadata6782">
    <rdf:RDF>
      <cc:Work
         rdf:about="">
        <dc:format>image/svg+xml</dc:format>
        <dc:type
           rdf:resource="http://purl.org/dc/dcmitype/StillImage" />
        <dc:title></dc:title>
      </cc:Work>
    </rdf:RDF>
  </metadata>
  <g
     inkscape:label="Calque 1"
     inkscape:groupmode="layer"
     id="layer1"
     transform="translate(290.0995,-524.37243)">
    <path
       style="fill:#000000"
       d="m -288.76905,545.24111 c -0.78694,-0.37845 -1.02314,-0.68187 -1.16098,-1.25845 -0.24742,-1.0351 -0.16572,-4.82104 -0.11372,-5.31178 0.052,-0.49064 2.03249,-0.3765 2.28983,-0.92703 0.33222,-0.7109 0.33822,-2.17622 0.42941,-2.38937 0.16746,-0.39142 0.80421,-0.46614 3.83708,-0.56248 0.54238,-0.0175 0.64105,0.12793 0.64105,0.94278 0,1.20822 0.65446,1.70627 1.64756,1.25381 0.80617,-0.36733 1.06275,-1.73271 0.83706,-4.45432 -0.12016,-1.44896 -0.20435,-1.63834 -0.67365,-1.51565 -0.33802,0.0885 -0.644,-0.0607 -0.82753,-0.40388 -0.30679,-0.57318 -0.16714,-0.61239 2.38625,-0.66879 1.89652,-0.40923 1.65093,-1.45349 1.73646,-2.1651 0.0855,-0.71161 0.0865,-0.98272 -0.0166,-1.85859 -0.15757,-1.34069 -0.11673,-1.54983 0.30266,-1.54983 0.35712,0 0.46507,0.20636 0.40985,0.78346 -0.10517,1.09922 0.0659,4.19434 0.64529,4.4851 0.57947,0.29075 1.35477,0.32534 2.01696,0.33522 1.18551,0.0175 2.20455,-0.12516 2.2203,0.41303 0.0245,0.83893 -2.3436,0.12793 -3.02795,0.84891 -0.49339,0.52327 -0.44371,5.57949 0.0636,6.47256 0.21967,0.38678 0.56281,1.77635 0.65655,3.035 l 0.17042,2.28841 1.93384,0.14244 c 1.28565,0.0947 2.0243,0.28572 2.2037,0.56979 0.35018,0.55455 0.3481,0.84613 -0.006,0.89039 -0.1567,0.0196 -0.41313,0.0679 -0.56983,0.10683 -0.1567,0.0391 -0.41312,0.0875 -0.56982,0.10684 -2.13686,-0.24928 -0.46713,-0.23271 -2.13686,-0.24928 l 10e-6,10e-5 c -0.50892,0 -0.71228,0.15397 -0.71228,0.53932 0,0.29662 -0.16191,0.78067 -0.40978,0.87578 -1.09055,0.15912 -6.11242,-0.0669 -6.38722,-0.60756 -0.27479,-0.54097 -1.07022,-0.2041 -2.34642,0.0967 -0.98329,0.42394 -4.6821,0.11362 -5.46906,-0.26483 z m 7.33647,-2.08184 c -0.41585,-0.67291 -0.66072,-2.67848 -0.36988,-3.02976 0.55343,-0.66828 0.14258,-1.64009 -0.81233,-1.92148 -0.79153,-0.23322 -0.88842,-0.36569 -0.7551,-1.03232 0.11647,-0.58245 0.0419,-0.93516 -0.6243,-1.40172 -0.66614,-0.46655 -2.14456,-0.25566 -2.52922,0.0792 -0.52667,0.45904 -0.22443,2.6929 -0.4694,2.64432 -0.0601,-0.0113 -2.42682,0.29744 -2.23773,0.82575 0.11005,1.56567 0.002,4.22439 0.75135,4.81116 0.74894,0.58677 1.83414,0.84356 2.65937,0.92703 0.6439,-0.0597 1.55609,0.069 2.20009,-0.13884 0.44186,-0.14245 0.2028,-0.98498 0.53439,-1.19206 0.7403,-0.46213 1.7909,-0.34819 1.65276,-0.57164 z m 4.73162,-0.79642 c 1.00056,-0.68475 0.89443,-2.13196 0.15375,-3.24106 -0.74972,-1.01823 -2.79776,-1.28655 -3.77463,-0.14121 -0.97684,1.14523 -0.72497,2.3168 -0.13451,3.21934 0.60844,1.17374 2.99651,0.65799 3.75539,0.16293 z m -0.0718,-6.14762 c 0.1165,-0.11322 0.17782,-1.32545 0.0614,-2.49394 -0.20946,-2.10078 -0.26226,-2.08451 -1.52142,-2.0453 -0.79812,0.0247 -1.23582,0.13462 -1.194,1.34922 0.0566,1.64287 -0.3282,3.10202 0.25636,3.37075 0.46877,0.21562 2.05341,0.15397 2.39773,-0.18073 z"
       id="path4772"
       inkscape:connector-curvature="0"
       sodipodi:nodetypes="zszssssssssczssszsscsscsscscccsczczsssszssczcsssszccsssssss" />
  </g>
</svg>
