<?xml version="1.0" encoding="UTF-8" standalone="no"?>
<!-- Created with Inkscape (http://www.inkscape.org/) -->

<svg
   xmlns:dc="http://purl.org/dc/elements/1.1/"
   xmlns:cc="http://creativecommons.org/ns#"
   xmlns:rdf="http://www.w3.org/1999/02/22-rdf-syntax-ns#"
   xmlns:svg="http://www.w3.org/2000/svg"
   xmlns="http://www.w3.org/2000/svg"
   xmlns:sodipodi="http://sodipodi.sourceforge.net/DTD/sodipodi-0.dtd"
   xmlns:inkscape="http://www.inkscape.org/namespaces/inkscape"
   width="7.4559875mm"
   height="7.491694mm"
   viewBox="0 0 26.418853 26.545372"
   id="svg7368"
   version="1.1"
   inkscape:version="0.91 r13725"
   sodipodi:docname="hamlet-2.svg">
  <defs
     id="defs7370" />
  <sodipodi:namedview
     id="base"
     pagecolor="#ffffff"
     bordercolor="#666666"
     borderopacity="1.0"
     inkscape:pageopacity="0.0"
     inkscape:pageshadow="2"
     inkscape:zoom="0.35"
     inkscape:cx="-545.36201"
     inkscape:cy="13.272691"
     inkscape:document-units="px"
     inkscape:current-layer="layer1"
     showgrid="false"
     fit-margin-top="0"
     fit-margin-left="0"
     fit-margin-right="0"
     fit-margin-bottom="0"
     inkscape:window-width="1920"
     inkscape:window-height="1027"
     inkscape:window-x="0"
     inkscape:window-y="0"
     inkscape:window-maximized="1" />
  <metadata
     id="metadata7373">
    <rdf:RDF>
      <cc:Work
         rdf:about="">
        <dc:format>image/svg+xml</dc:format>
        <dc:type
           rdf:resource="http://purl.org/dc/dcmitype/StillImage" />
        <dc:title></dc:title>
      </cc:Work>
    </rdf:RDF>
  </metadata>
  <g
     inkscape:label="Calque 1"
     inkscape:groupmode="layer"
     id="layer1"
     transform="translate(-361.79058,-519.08952)">
    <path
       style="fill:#000000"
       d="m 385.41107,545.33824 c -0.0898,-0.23404 -0.022,-0.37237 0.18249,-0.37237 0.57243,0 0.60926,-0.41972 0.0801,-0.91263 -0.4421,-0.4119 -0.54087,-0.42991 -0.70913,-0.12916 -0.10752,0.19205 -0.36394,0.34932 -0.56982,0.34932 -0.20588,0 -0.54777,0.15696 -0.75977,0.34881 -0.43103,0.39008 -1.70127,0.4966 -3.15706,0.26492 -0.5595,-0.0895 -1.02584,-0.0587 -1.10684,0.0731 -0.21164,0.34242 -3.08051,0.21181 -3.21802,-0.14657 -0.0626,-0.16313 0.0587,-0.39327 0.26961,-0.51132 0.31547,-0.17651 0.3315,-0.27728 0.0904,-0.56773 -0.26059,-0.31402 -0.34257,-0.30372 -0.73933,0.0926 -0.3844,0.38442 -1.03898,0.57133 -1.65817,0.47356 -0.0952,-0.0154 -0.17313,0.0813 -0.17313,0.21274 0,0.14059 -0.43051,0.21233 -1.0386,0.17322 -0.95712,-0.0618 -1.03862,-0.11579 -1.03879,-0.68856 -1.7e-4,-0.56618 -0.0876,-0.62783 -0.98126,-0.69257 -0.5396,-0.0391 -1.33437,0.0165 -1.76618,0.12268 -0.43178,0.10643 -1.2366,0.15768 -1.78848,0.11384 -0.55187,-0.0443 -1.04201,0.0247 -1.0892,0.15263 -0.056,0.15161 -0.23812,0.14307 -0.52375,-0.0247 -0.33438,-0.19607 -0.50743,-0.18248 -0.73179,0.0576 -0.37405,0.40037 -1.42985,0.41107 -1.42985,0.0144 0,-0.16509 0.12466,-0.42477 0.27701,-0.5771 0.21545,-0.21552 0.002,-0.27707 -0.96184,-0.27707 -1.94394,0 -1.14349,-0.36939 1.45619,-0.67198 1.9575,-0.22788 2.29453,-0.73642 2.28085,-3.44156 -0.006,-1.07689 0.0635,-1.13813 1.44041,-1.27975 0.75775,-0.17837 1.55596,-0.27748 1.95209,-0.64996 0.32479,-0.30548 0.31296,-0.84202 0.34837,-1.35582 0.032,-0.50278 0.11403,-0.97005 0.18223,-1.03819 0.0681,-0.0679 1.17887,-0.14543 2.46816,-0.17167 0,0 1.82967,-0.10303 2.32971,0.21254 0.66413,0.56587 0.77157,1.91993 1.62856,1.9328 0.74973,0 1.19648,-0.47633 1.12513,-1.19968 0.0153,-1.02193 0.19977,-2.31825 -0.19364,-3.14699 -0.22589,-0.42209 -0.15276,-0.47129 0.92031,-0.61888 1.5369,-0.2114 1.92648,-0.36692 1.82855,-5.3722 -0.0317,-1.61847 0.0473,-3.49034 0.0865,-5.12199 0.0593,-2.14842 0.0843,-2.00608 0.38747,-1.70287 0.23154,0.23158 0.33172,7.25951 0.13442,9.42945 -0.0461,0.50782 -0.0348,1.24661 0.0253,1.64183 0.10867,0.71491 0.11777,0.71923 1.85429,0.866 0.95979,0.0813 1.79047,0.19288 1.84593,0.24836 0.0555,0.0556 -0.25406,0.41251 -0.68787,0.79333 -0.72887,0.63998 -0.80954,0.84891 -1.06303,2.75279 -0.34624,2.60057 -0.34689,4.1681 -0.002,5.83577 0.26966,1.30558 0.27952,1.31742 1.20267,1.44124 0.51194,0.069 1.21397,0.0679 1.56007,-8.3e-4 0.77041,-0.15407 2.00351,0.35849 2.17693,0.9048 0.1578,0.49723 -0.0527,0.86785 -0.49291,0.86785 -0.4023,0 -0.43612,0.49682 -0.0595,0.87341 0.38434,0.38432 0.13461,0.54848 -1.03499,0.68033 -0.79291,0.0895 -1.04679,0.0329 -1.15837,-0.25793 z m -11.93034,-1.94587 c 0,-0.10374 0.70119,-0.32637 1.55818,-0.49485 2.1104,-0.41489 2.1741,-0.44669 1.99948,-0.99682 -0.0822,-0.25916 -0.14458,-1.28572 -0.1385,-2.28109 0.0239,-0.7323 0.18867,-1.74095 -0.14232,-2.27358 -0.16957,-0.27285 -0.68249,-0.39945 -0.96842,-0.34418 -0.57122,0.12546 -0.69381,0.0782 -0.69987,-0.27028 -0.0995,-0.38092 -0.0764,-1.0668 -0.30728,-1.31083 -0.41306,-0.43671 -1.19408,-0.28664 -1.77894,-0.33008 -0.45791,-0.0525 -1.20675,-0.0772 -1.44414,0.2394 -0.23492,0.31351 0.0397,0.96656 -0.0494,1.35242 -0.73617,1.88371 -2.82197,0.80476 -3.77268,1.9928 -0.48601,0.66149 -0.39366,2.28789 -0.27336,2.88567 l 0.15714,0.75021 1.9985,-0.035 c 1.80018,-0.0309 2.01275,0.0103 2.14241,0.419 0.1905,0.60015 1.71923,1.21975 1.71923,0.69679 z m -0.33755,-2.20369 c -0.35503,-0.71388 -0.24359,-1.49538 0.0744,-1.81341 0.56466,-0.56464 1.1865,-0.27748 1.1865,0.38164 0,0.68578 -0.18172,1.60385 -0.42675,1.59614 -0.0984,0 -0.61684,0.27274 -0.83417,-0.16437 z m 8.15758,0.71809 c 1.01307,-0.78551 1.05889,-2.64122 0.40221,-3.58101 -0.65667,-0.9399 -2.18263,-1.11899 -3.33051,-0.27502 -1.1479,0.84398 -0.84787,2.74611 -0.31575,3.49117 0.73541,0.91489 2.16076,1.24908 3.24405,0.36486 z m 0.17705,-6.26166 c 0.0306,-1.04241 -0.0165,-1.14451 -0.63481,-1.37794 -0.5514,-0.20811 -0.37145,-0.52851 -0.37145,-1.15974 -0.49948,-1.16365 -1.30189,-1.13895 -1.57642,-0.66499 -0.35726,0.61682 -0.40756,2.15872 -0.41223,2.90666 0.002,0.80795 0.0272,1.30116 0.98407,1.2882 1.84946,-0.0247 1.97197,0.33285 2.01084,-0.99219 z"
       id="path4785"
       inkscape:connector-curvature="0"
       sodipodi:nodetypes="cssssssssssscsssssssssssssscsccsccccsscssssssssscssssccssscsccscsccccscsssscsczzccsscscss" />
  </g>
</svg>
