<?xml version="1.0" encoding="UTF-8" standalone="no"?>
<!-- Created with Inkscape (http://www.inkscape.org/) -->

<svg
   xmlns:dc="http://purl.org/dc/elements/1.1/"
   xmlns:cc="http://creativecommons.org/ns#"
   xmlns:rdf="http://www.w3.org/1999/02/22-rdf-syntax-ns#"
   xmlns:svg="http://www.w3.org/2000/svg"
   xmlns="http://www.w3.org/2000/svg"
   xmlns:sodipodi="http://sodipodi.sourceforge.net/DTD/sodipodi-0.dtd"
   xmlns:inkscape="http://www.inkscape.org/namespaces/inkscape"
   width="100"
   height="100"
   viewBox="0 0 99.999997 99.999997"
   id="svg4999"
   version="1.1"
   inkscape:version="0.91 r13725"
   sodipodi:docname="house-2.svg">
  <defs
     id="defs5001" />
  <sodipodi:namedview
     id="base"
     pagecolor="#ffffff"
     bordercolor="#666666"
     borderopacity="1.0"
     inkscape:pageopacity="0.0"
     inkscape:pageshadow="2"
     inkscape:zoom="2.8"
     inkscape:cx="-4.8454422"
     inkscape:cy="44.957218"
     inkscape:document-units="px"
     inkscape:current-layer="layer1"
     showgrid="false"
     units="px"
     inkscape:window-width="1920"
     inkscape:window-height="1027"
     inkscape:window-x="0"
     inkscape:window-y="0"
     inkscape:window-maximized="1"
     showguides="true"
     inkscape:guide-bbox="true">
    <sodipodi:guide
       position="59.642855,2.1428571"
       orientation="0,1"
       id="guide5615" />
    <sodipodi:guide
       position="3.2142856,-43.571427"
       orientation="1,0"
       id="guide5617" />
    <sodipodi:guide
       position="97.499997,3.2142856"
       orientation="1,0"
       id="guide5619" />
  </sodipodi:namedview>
  <metadata
     id="metadata5004">
    <rdf:RDF>
      <cc:Work
         rdf:about="">
        <dc:format>image/svg+xml</dc:format>
        <dc:type
           rdf:resource="http://purl.org/dc/dcmitype/StillImage" />
        <dc:title></dc:title>
      </cc:Work>
    </rdf:RDF>
  </metadata>
  <g
     inkscape:label="Calque 1"
     inkscape:groupmode="layer"
     id="layer1"
     transform="translate(0,-952.36223)">
    <path
       style="fill:#000000"
       d="m 56.76858,1045.7602 c -1.561754,4.1072 -3.618276,5.1272 -6.668797,3.2226 -2.652101,-1.6565 -3.043461,-3.381 -1.188096,-5.2368 0.669034,-0.6686 1.462136,-2.5136 1.762807,-4.1 0.300567,-1.5864 0.874344,-4.3963 1.275463,-6.2454 2.011722,-9.274 1.428342,-15.0606 -1.518875,-15.0606 -2.293134,0 -6.211043,-4.7296 -6.261656,-7.5588 -0.02077,-1.2163 -2.005805,-6.1899 -4.408939,-11.05244 -3.895274,-7.88118 -4.700679,-8.80261 -7.419486,-8.48491 -5.469644,2.5421 -9.911131,8.21238 -12.507843,11.34935 -5.362239,6.3727 -6.719722,27.4082 -2.04126,29.2043 3.812633,3.2004 -0.710355,7.9316 -0.944579,7.8439 -1.141065,-0.4361 -4.656193,-0.4984 -5.901651,-1.0964 -1.8543785,-2.661 -0.222181,-7.223 0.231525,-11.5877 0.688864,-7.2681 3.416237,-17.6545 -1.9904385,-19.2882 -4.1341194,-1.9331 -6.3723829,-2.5857 -6.1533688,-3.6898 0.2190661,-1.1037 1.6514571,-1.5153 7.4814703,-1.5392 3.48559,0 4.616635,-0.9972 7.76802,-3.55853 4.739459,-4.01327 9.710494,-8.57888 11.871098,-13.43467 1.718111,-4.18354 0.314064,-9.57921 0.04153,-15.8039 -0.61271,-13.77625 -0.471875,-15.50178 1.32618,-16.19117 1.106803,-0.42048 2.233799,-0.55077 2.504725,-0.27513 0.270977,0.27513 0.706047,5.69728 0.967057,12.05902 0.261114,6.36174 0.836967,11.92976 1.279927,12.37256 1.404671,1.40472 14.112579,2.45437 21.819188,1.80133 l 7.428105,-0.62865 0,-5.12106 c 0,-5.26329 1.987064,-11.17444 3.756308,-11.17444 0.548704,0 1.06678,0.6681 1.150928,1.4857 0.08514,0.81708 0.362861,3.08977 0.618732,5.05098 0.255923,1.96121 0.890747,9.33419 0.860223,13.63401 0.641833,10.91177 6.74028,19.45115 9.431107,24.79855 0.531572,1.0056 2.247919,4.1825 5.271757,5.1642 3.798097,0.9879 7.685741,0.3737 10.993587,2.2005 1.302146,1.6103 -6.5263,2.8271 -9.166981,2.9128 -1.696983,3.2231 0.677444,10.6091 1.037709,13.7196 0.924542,7.8459 1.724964,10.4887 3.626063,11.9723 2.363733,1.8445 2.281142,1.9285 -2.660511,2.7192 -9.018255,1.237 -30.652431,-4.9981 -33.673623,-0.379 z m 26.442106,-15.5376 c -0.02076,-6.7776 -0.423078,-8.5343 -2.164134,-9.4656 -2.853777,-1.5277 -3.638781,-0.5035 -3.638781,4.7639 0,6.9956 1.301626,11.6713 3.404868,12.2309 1.068752,0.2855 2.05159,0.5793 2.183964,0.6551 0.131855,0.073 0.227891,-3.6068 0.214394,-8.1843 z m -19.090778,-1.6669 c 0.501983,-6.1349 -0.607986,-10.2157 -2.779388,-10.2157 -0.968095,0 -4.461369,0.2907 -4.461369,1.1873 -1.608267,3.3119 -0.832918,6.4297 -0.666179,9.7437 0.259557,4.4031 0.454744,4.6175 3.900311,4.2806 3.286303,-0.3218 3.662349,-0.7906 4.006625,-4.9959 z m 8.383742,-8.0608 c 0,-2.4253 -3.79872,-2.5634 -4.997302,-1.3643 -1.405813,1.4053 -0.549275,16.4835 1.383646,18.4161 1.183735,1.1841 3.496388,0.7221 4.129344,-3.871 0.53505,-3.8825 -0.51548,-11.7875 -0.51548,-13.1808 z m 0.726863,-8.3048 c 2.324281,-1.059 2.988643,-2.2447 2.988643,-5.3313 0,-2.2166 -0.931394,-4.8999 -2.109679,-6.0788 -1.160427,-1.16025 -3.21887,-4.67154 -4.574276,-7.80283 -1.355511,-3.1313 -2.946543,-5.72635 -3.535529,-5.76684 -0.589143,-0.0519 -1.605931,-0.22841 -2.259651,-0.42048 -4.007871,-1.16853 -7.703392,-1.20019 -8.08411,-0.0675 -0.315621,0.93855 -1.622127,0.88924 -4.582686,-0.17131 -2.277352,-0.81709 -6.108517,-1.48571 -8.513416,-1.48571 -3.752154,0 -4.372444,0.38415 -4.372444,2.69524 0,1.48259 1.470857,4.80077 3.268393,7.37402 1.797639,2.57273 4.605474,7.37659 6.239541,10.67509 2.328849,4.7 3.742396,6.1593 6.536787,6.7479 8.037492,0.6282 14.372655,1.6991 18.998427,-0.3634 z m -45.561071,29.4078 c -0.922673,-1.5693 -0.308353,-13.078 0.359746,-24.8531 2.800309,-0.7506 4.989879,0.9427 6.632252,1.004 1.243745,0.052 1.842906,6.5148 1.774227,11.8825 0.250732,4.8802 1.066157,12.6254 -0.812621,13.8806 -1.554279,0 -7.1143,-0.9028 -7.953759,-1.914 z"
       id="path4901"
       inkscape:connector-curvature="0"
       sodipodi:nodetypes="cscccsccccccccczscccccscscsscsccccccscccsssscssccsssccsscccccscsssscsccccccccc" />
  </g>
</svg>
