<?xml version="1.0" encoding="UTF-8" standalone="no"?>
<!-- Created with Inkscape (http://www.inkscape.org/) -->

<svg
   xmlns:dc="http://purl.org/dc/elements/1.1/"
   xmlns:cc="http://creativecommons.org/ns#"
   xmlns:rdf="http://www.w3.org/1999/02/22-rdf-syntax-ns#"
   xmlns:svg="http://www.w3.org/2000/svg"
   xmlns="http://www.w3.org/2000/svg"
   xmlns:sodipodi="http://sodipodi.sourceforge.net/DTD/sodipodi-0.dtd"
   xmlns:inkscape="http://www.inkscape.org/namespaces/inkscape"
   width="91.902069"
   height="133.18828"
   viewBox="0 0 91.902066 133.18827"
   id="svg4999"
   version="1.1"
   inkscape:version="0.91 r13725"
   sodipodi:docname="manor-1.svg">
  <defs
     id="defs5001" />
  <sodipodi:namedview
     id="base"
     pagecolor="#ffffff"
     bordercolor="#666666"
     borderopacity="1.0"
     inkscape:pageopacity="0.0"
     inkscape:pageshadow="2"
     inkscape:zoom="2.8"
     inkscape:cx="-77.60244"
     inkscape:cy="41.908168"
     inkscape:document-units="px"
     inkscape:current-layer="layer1"
     showgrid="false"
     units="px"
     inkscape:window-width="1920"
     inkscape:window-height="1027"
     inkscape:window-x="0"
     inkscape:window-y="0"
     inkscape:window-maximized="1"
     showguides="true"
     inkscape:guide-bbox="true"
     fit-margin-top="0"
     fit-margin-left="0"
     fit-margin-right="0"
     fit-margin-bottom="0">
    <sodipodi:guide
       position="55.993,-0.19190706"
       orientation="0,1"
       id="guide5615" />
    <sodipodi:guide
       position="-0.43556883,-45.90619"
       orientation="1,0"
       id="guide5617" />
    <sodipodi:guide
       position="93.850142,0.8795214"
       orientation="1,0"
       id="guide5619" />
  </sodipodi:namedview>
  <metadata
     id="metadata5004">
    <rdf:RDF>
      <cc:Work
         rdf:about="">
        <dc:format>image/svg+xml</dc:format>
        <dc:type
           rdf:resource="http://purl.org/dc/dcmitype/StillImage" />
        <dc:title></dc:title>
      </cc:Work>
    </rdf:RDF>
  </metadata>
  <g
     inkscape:label="Calque 1"
     inkscape:groupmode="layer"
     id="layer1"
     transform="translate(-3.6498545,-916.83919)">
    <path
       style="fill:#000000"
       d="m 17.727554,1017.0689 c -0.282967,1.9288 0.788628,2.4926 6.97619,1.8455 3.253146,-0.62 27.665888,1.7308 27.858987,-0.619 4.845552,-9.1539 16.585433,-17.4963 16.734546,-27.2032 0,0 0.741611,-2.8102 -1.10606,-4.32675 -6.184262,-0.26511 -25.936544,-1.46677 -29.855068,0.75855 0.90398,5.14805 -20.114728,26.7596 -20.608595,29.5449 z m 17.327045,-66.9501 -1.033614,-13.58674 -10.068321,-0.1569 c -10.384616,-0.16232 -18.8918028,-4.41548 -16.7540228,-6.48714 1.9676212,-1.90665 11.2066808,-1.00472 14.9952458,-1.24549 4.65559,-0.15149 12.655655,-6.18415 12.711924,-9.7886 1.106006,-2.81344 3.687389,-2.66573 5.028588,0.35168 0.844031,20.27082 -0.01082,54.24579 1.136953,59.48636 2.471984,6.79932 25.733164,6.10516 30.291908,3.16836 2.381521,-1.69564 1.474945,-6.29615 1.530726,-10.06561 0,-6.93783 2.524845,-12.04585 4.615662,-7.99395 0.710176,1.37642 1.309655,7.59303 1.332163,13.81506 0.03246,9.07496 0.655098,12.35424 3.148507,16.5798 2.053052,4.38139 17.989122,12.19197 12.36717,12.94827 -3.548557,0.3896 2.905632,39.1869 -1.047464,41.646 -3.95326,2.4585 -23.04947,-0.087 -34.948094,0.4761 -9.231052,0 -12.035725,2.564 -11.77018,-2.4288 0.194236,-3.6455 0.464758,-19.8255 -0.895431,-21.4995 -2.100934,-2.5851 -8.731721,-2.7431 -17.731422,-3.071 -12.125484,-0.4382 -16.13182,-0.2489 -17.758745,1.4024 -0.6971372,1.087 -1.5266144,6.7355 -1.8686094,15.3013 -0.3484335,8.7265 -0.8482516,10.6316 -2.8907534,11.0217 -2.0862184,0.4003 -1.6651766,-2.6301 -1.4049877,-7.44 0.3706164,-7.3539 1.305327,-14.8051 -0.2364369,-19.3802 -0.7468055,-2.0506 1.1882446,-2.9709 5.9766619,-7.3609 3.4621515,-3.1733 8.7448145,-8.1514 11.7392325,-11.0623 4.710398,-3.1516 11.553653,-14.11477 13.256541,-19.16705 1.702833,-5.05229 0.397668,-24.46177 0.277015,-35.47096 z m 41.104869,88.2678 c 2.187556,-2.1679 1.403906,-7.0785 1.711003,-16.8011 0.399833,-12.6631 0.611869,-17.7225 0.683557,-19.7492 0.0725,-2.02732 -0.172593,-4.88566 -0.731439,-6.96815 -0.852039,-3.17431 -1.664636,-7.55191 -2.465167,-7.63848 -1.148532,-0.12444 -2.501958,8.24933 -3.83477,11.12931 -1.968433,4.25312 -4.155069,9.22262 -5.651872,11.12602 -2.452507,3.1176 -1.486361,4.1104 0.504795,5.7633 1.676755,1.391 3.084502,1.2649 2.883774,8.825 -0.354385,13.3378 -0.202351,14.9025 1.448758,14.9025 0.776076,0 4.080892,0.7689 5.451361,-0.5892 z m -13.917753,-12.2833 c 0,-4.3906 0.168265,-6.2042 -0.552408,-6.9801 -0.488564,-0.5248 -3.747932,-0.5356 -4.074777,0.3138 -0.347352,0.9041 -0.992765,16.3007 0.890182,20.0983 0.278639,0.5616 2.076155,0.2975 2.424859,0.2975 1.356239,0 1.312252,-7.4805 1.312252,-13.7263 z m 23.748663,-21.9627 c -0.468005,-0.3409 -2.734175,-0.2651 -3.336251,0 -0.602184,0.2868 -1.353913,29.2111 -0.490728,30.0194 0.863346,0.8072 2.270823,0.8278 3.387217,0.2164 1.116556,-0.6098 0.907388,-29.9204 0.43987,-30.258 z"
       id="path4957"
       inkscape:connector-curvature="0"
       sodipodi:nodetypes="ccccccccssccccccccccczcssscsccccczcsszsssssscsssssssczzzzc" />
  </g>
</svg>
