<?xml version="1.0" encoding="UTF-8" standalone="no"?>
<!-- Created with Inkscape (http://www.inkscape.org/) -->

<svg
   xmlns:dc="http://purl.org/dc/elements/1.1/"
   xmlns:cc="http://creativecommons.org/ns#"
   xmlns:rdf="http://www.w3.org/1999/02/22-rdf-syntax-ns#"
   xmlns:svg="http://www.w3.org/2000/svg"
   xmlns="http://www.w3.org/2000/svg"
   xmlns:sodipodi="http://sodipodi.sourceforge.net/DTD/sodipodi-0.dtd"
   xmlns:inkscape="http://www.inkscape.org/namespaces/inkscape"
   width="4.5582504mm"
   height="5.6554365mm"
   viewBox="0 0 16.151281 20.038948"
   id="svg9823"
   version="1.1"
   inkscape:version="0.91 r13725"
   sodipodi:docname="other-1.svg">
  <defs
     id="defs9825" />
  <sodipodi:namedview
     id="base"
     pagecolor="#ffffff"
     bordercolor="#666666"
     borderopacity="1.0"
     inkscape:pageopacity="0.0"
     inkscape:pageshadow="2"
     inkscape:zoom="2.8"
     inkscape:cx="-134.56151"
     inkscape:cy="17.508657"
     inkscape:document-units="px"
     inkscape:current-layer="layer1"
     showgrid="false"
     fit-margin-top="0"
     fit-margin-left="0"
     fit-margin-right="0"
     fit-margin-bottom="0"
     inkscape:window-width="1920"
     inkscape:window-height="1027"
     inkscape:window-x="0"
     inkscape:window-y="0"
     inkscape:window-maximized="1" />
  <metadata
     id="metadata9828">
    <rdf:RDF>
      <cc:Work
         rdf:about="">
        <dc:format>image/svg+xml</dc:format>
        <dc:type
           rdf:resource="http://purl.org/dc/dcmitype/StillImage" />
        <dc:title></dc:title>
      </cc:Work>
    </rdf:RDF>
  </metadata>
  <g
     inkscape:label="Calque 1"
     inkscape:groupmode="layer"
     id="layer1"
     transform="translate(191.64707,-522.34273)">
    <path
       style="fill:#000000"
       d="m -177.86099,541.97491 -1.373,-0.34938 1.4875,-0.0541 c 0.8181,-0.0298 1.4874,0.1518 1.4874,0.40353 0,0.25172 -0.052,0.43331 -0.1144,0.40352 -0.063,-0.0298 -0.7323,-0.21137 -1.4875,-0.40352 z m -13.7304,-0.91536 c -0.1555,-0.25173 0.026,-0.45768 0.4037,-0.45768 0.3776,0 0.8138,0.20595 0.9694,0.45768 0.1556,0.25172 -0.026,0.45768 -0.4037,0.45768 -0.3776,0 -0.8138,-0.20596 -0.9694,-0.45768 z m 3.9444,-14.64576 c -0.2223,0 -0.1113,0.85011 0.2467,1.88913 0.5108,1.48272 2.2975,2.8535 1.9956,2.89398 -0.1133,0.0152 -1.9437,-0.90871 -2.1815,-0.99363 -0.3146,-0.11238 -0.5721,-0.55788 -0.5721,-0.99001 0,-0.43212 -0.232,-1.01775 -0.5157,-1.30139 -0.6857,-0.68571 -0.1123,-2.87112 0.7533,-2.87112 0.3728,0 0.722,0.15423 0.8813,0.54118 -0.204,-0.26652 -0.2392,-1.15758 -0.1419,-1.65089 0.2201,-1.12114 1.8022,-2.09771 2.0949,-1.29311 0.1145,0.31465 0.4999,0.5721 0.8566,0.5721 0.3566,0 0.6483,0.29461 0.6483,0.65469 0,0.36008 0.4634,0.7205 1.0298,0.80094 0.8276,0.11753 1.0009,0.39341 0.8826,1.40487 -0.488,1.13527 -1.2257,1.62333 -1.3509,1.83662 -0.2942,0.50096 -0.4605,1.59649 -0.2359,1.53278 0.2672,-0.0758 0.8573,-1.44232 1.3346,-1.92694 0.5246,-0.53265 0.9313,-0.18384 1.0532,-0.18384 0.7483,0 0.9481,0.28931 0.9481,1.37304 0,1.00557 -0.2156,1.37304 -0.8056,1.37304 -1.0306,0 -3.2424,2.04166 -3.7996,3.50722 -0.2361,0.62104 -0.4293,1.8366 -0.4293,2.70125 0,1.44164 0.1139,1.57209 1.373,1.57209 1.4902,0 2.023,1.3291 0.5721,1.42719 -0.4405,0.0298 -0.183,0.19801 0.5721,0.37385 0.7552,0.17583 1.8499,0.15146 2.4327,-0.0541 1.8292,-0.64543 4.5088,-0.45962 4.5088,0.31267 0,0.53097 -0.5987,0.68652 -2.6428,0.68652 -1.4535,0 -2.77,0.20595 -2.9256,0.45768 -0.4666,0.75498 -6.4628,0.56591 -7.2575,-0.22884 l 0,-5e-5 c -0.3776,-0.37759 -1.1253,-0.68652 -1.6616,-0.68652 -0.5363,0 -0.8478,-0.20596 -0.6922,-0.45768 0.1556,-0.25173 1.0619,-0.45768 2.0141,-0.45768 1.6204,0 1.7661,-0.1161 2.2743,-1.81254 0.2987,-0.99689 0.6703,-3.46196 0.8257,-5.47792 0.1555,-2.01597 -0.6847,-4.40522 -0.5475,-4.51533 0.313,-0.25121 0.7818,1.61445 1.2644,1.64556 0.4239,0.0273 0.6708,-1.62398 0.8619,-2.02211 0.6034,-1.25717 0.6249,-1.54806 0.1144,-1.54806 -0.3457,0 -0.6286,-0.2869 -0.6286,-0.63755 0,-0.90804 -1.3643,-1.31255 -2.1704,-0.64354 -0.09,0.075 -0.2682,0.26088 -0.2551,0.65676 0.012,0.35388 0.2115,0.92 0.1921,1.01166 0.05,0.52845 -0.695,0.52803 -0.9172,0.52803 z"
       id="path9812"
       inkscape:connector-curvature="0"
       sodipodi:nodetypes="cccsccccscscccscscscccssscsssssscsscccsscccscsccsscsscscsc" />
  </g>
</svg>
