<?xml version="1.0" encoding="UTF-8" standalone="no"?>
<!-- Created with Inkscape (http://www.inkscape.org/) -->

<svg
   xmlns:dc="http://purl.org/dc/elements/1.1/"
   xmlns:cc="http://creativecommons.org/ns#"
   xmlns:rdf="http://www.w3.org/1999/02/22-rdf-syntax-ns#"
   xmlns:svg="http://www.w3.org/2000/svg"
   xmlns="http://www.w3.org/2000/svg"
   xmlns:sodipodi="http://sodipodi.sourceforge.net/DTD/sodipodi-0.dtd"
   xmlns:inkscape="http://www.inkscape.org/namespaces/inkscape"
   width="94.159111"
   height="169.43164"
   viewBox="0 0 94.159108 169.43164"
   id="svg4999"
   version="1.1"
   inkscape:version="0.91 r13725"
   sodipodi:docname="priory-1.svg">
  <defs
     id="defs5001" />
  <sodipodi:namedview
     id="base"
     pagecolor="#ffffff"
     bordercolor="#666666"
     borderopacity="1.0"
     inkscape:pageopacity="0.0"
     inkscape:pageshadow="2"
     inkscape:zoom="2.8"
     inkscape:cx="-76.031037"
     inkscape:cy="41.636433"
     inkscape:document-units="px"
     inkscape:current-layer="layer1"
     showgrid="false"
     units="px"
     inkscape:window-width="1920"
     inkscape:window-height="1027"
     inkscape:window-x="0"
     inkscape:window-y="0"
     inkscape:window-maximized="1"
     showguides="true"
     inkscape:guide-bbox="true"
     fit-margin-top="0"
     fit-margin-left="0"
     fit-margin-right="0"
     fit-margin-bottom="0">
    <sodipodi:guide
       position="57.564403,-0.46364177"
       orientation="0,1"
       id="guide5615" />
    <sodipodi:guide
       position="1.1358341,-46.177927"
       orientation="1,0"
       id="guide5617" />
    <sodipodi:guide
       position="95.421545,0.60778676"
       orientation="1,0"
       id="guide5619" />
  </sodipodi:namedview>
  <metadata
     id="metadata5004">
    <rdf:RDF>
      <cc:Work
         rdf:about="">
        <dc:format>image/svg+xml</dc:format>
        <dc:type
           rdf:resource="http://purl.org/dc/dcmitype/StillImage" />
        <dc:title></dc:title>
      </cc:Work>
    </rdf:RDF>
  </metadata>
  <g
     inkscape:label="Calque 1"
     inkscape:groupmode="layer"
     id="layer1"
     transform="translate(-2.0784516,-880.32409)">
    <path
       style="fill:#000000"
       d="m 33.843349,988.63817 c -2.88792,-0.30039 -7.466423,-0.71401 -11.521023,-0.47785 0.0069,6.44503 -0.529151,21.81898 0.159512,27.30658 2.954694,0.531 6.862281,0.6218 10.113142,0.034 0.415008,-3.2457 0.522626,-24.87132 1.248369,-26.86417 z m -14.435252,-7.20428 c 0.936181,1.5782 18.187509,2.44896 19.458216,0.85661 0.917193,-1.69767 -7.332292,-12.25098 -10.419844,-15.67876 0,0 -9.632364,13.04233 -9.038372,14.82215 z m 28.032832,32.91391 c -4.708046,9.6229 -4.833169,8.1237 1.620389,8.2249 8.322539,0.2382 9.178447,0.6464 12.665572,-2.211 1.494922,-1.9225 4.867384,-8.4907 5.413867,-10.4239 -7.704171,-0.8041 -17.094506,-0.9149 -17.448746,-0.1934 z m 2.745776,-7.1559 c 0.949957,-0.5317 0.698916,-1.9124 0.914637,-3.2817 0.436999,-2.8477 1.142546,-2.4548 1.493299,0.744 0.379133,3.0977 0.265852,2.6241 7.935428,3.2013 4.828508,0.3635 7.213172,0.5573 7.417258,-0.8117 0.566404,-3.7962 1.268774,-6.5507 1.912069,-6.1529 0.37903,0.2348 0.670949,1.5827 0.64868,2.9965 -0.05731,3.6705 1.61894,9.1443 3.281625,10.7146 4.563104,4.3098 10.385417,8.0605 12.512826,8.0605 2.070994,0 2.421816,1.941 0.541132,2.9934 -1.349428,0.7551 -0.681377,5.5128 -0.74387,11.1216 -0.03729,3.3701 -0.749256,5.9137 1.032268,7.7547 1.379086,1.4252 5.445943,1.198 6.801999,1.5229 2.64009,0.3452 2.283054,0.9381 2.291685,3.3953 -6.183459,-0.6639 -27.482306,2.2629 -34.46101,-2.403 0.581906,-1.6303 1.772271,-8.5657 1.791295,-11.9351 0.02417,-4.4649 0.402405,-9.0169 1.122658,-8.8729 1.604439,0.3211 1.359198,3.6809 1.273608,7.11 -0.04005,3.0376 0.07769,12.9284 1.469924,13.2924 2.587611,0.6763 3.986998,-11.6085 3.756051,-15.6988 -0.225112,-3.9858 1.325017,-4.6104 1.761361,-0.71 0.260329,2.3278 0.536849,16.5623 1.145929,16.1318 0.07769,-0.055 0.913256,0.9077 1.078603,-0.4078 0.50657,-4.0295 0.587534,-13.9634 0.81054,-14.7389 0.989421,-2.4524 1.481491,-1.0717 1.85289,0.7327 0.08804,0.3279 0.738346,11.858 1.079017,13.4884 0.362665,1.7346 2.579981,-0.2314 3.234013,-0.2314 1.074494,-0.8728 1.088166,-9.5848 1.294979,-14.6588 0.121188,-2.9796 0.178846,-5.8609 -0.678062,-6.4116 -2.000456,-1.0862 -9.882301,-6.454 -13.168345,-11.4174 -1.155527,-1.879 -3.694456,6.7678 -6.824889,9.3144 -3.169863,3.0253 -4.12714,3.6546 -4.021179,8.4352 0.164691,4.5405 0.511369,12.1933 0.09564,16.2546 -4.826782,0.6419 -10.354517,0.059 -15.407205,0.221 -8.215268,0.214 -11.226276,-2.7021 -3.465995,-3.0455 6.383264,-0.2832 12.863235,-0.3419 15.157475,-1.532 1.463571,-0.7834 1.392413,-2.2487 1.185739,-8.4845 l -0.227875,-6.8728 -5.138036,-0.066 c -2.826015,-0.034 -5.578178,0.2693 -6.116099,0.6816 -5.439658,0.6614 -5.696604,-2.1676 -5.97385,0.8517 0.166072,6.9453 1.382193,9.5821 -1.135778,14.0698 -5.882774,0.6788 -17.910885,0.9729 -23.669739,-0.1277 -1.17614,-1.1294 -0.971399,-3.1855 0.09254,-2.9876 0.49162,0.093 1.867529,0.5746 2.630493,-0.2693 1.221196,-1.3496 0.235469,-2.8004 -0.133273,-5.9512 -0.205431,-1.7544 0.106687,-4.3691 0.492,-6.1876 0.184372,-0.87 1.865942,-3.2962 2.113324,-6.7636 0.636527,-8.9255 0.56012,-23.66165 0.734858,-30.53861 -0.461341,-3.77442 -9.041308,-4.46356 -6.346458,-7.65967 4.364853,-4.77049 5.482333,-4.35342 11.849921,-17.29044 0.657002,-0.92117 0.322476,-0.78789 0.523039,-5.04153 0.329727,-6.98468 -0.215789,-17.11678 -0.904728,-18.51751 -1.726834,-1.41731 -9.620175,0.6156 -9.696721,-2.18241 -0.09218,-3.35907 6.461293,-2.45344 9.850295,-2.93923 l 0,-10.68107 c 0,-9.6722 0.0625,-10.02783 2.65573,-15.1543 1.585795,-2.39508 2.163352,-4.76187 2.057286,-7.1535 -0.147427,-3.31937 -1.611136,-6.68638 -3.524274,-10.24294 -3.291742,-6.11875 -11.615937,-7.75012 -15.451675,-6.59314 -8.053475,4.53193 -3.7805306,12.54859 -1.4586345,16.03472 2.9086725,4.40453 3.6091765,7.89996 3.2670205,9.90111 -0.311427,2.26873 -4.1220307,7.90377 -5.8167904,9.35457 -3.2530711,1.8071 -5.0444699,-5.67993 -3.6642107,-5.4517 7.4206071,-0.42088 4.6705498,-5.02635 -0.00691,-15.50268 -2.2422437,-5.02116 -1.4046348,-12.0124 2.3603583,-16.08651 8.5940888,-7.55498 20.6469558,-4.47115 25.6773398,5.83426 2.561749,4.23915 4.164324,10.82746 3.934827,16.21254 -1.788705,5.40958 -3.672773,7.19493 -4.223606,10.54054 -0.598548,3.63527 0.1968,8.77003 -0.338358,13.39691 -0.218207,1.77845 -0.107032,5.13233 0.247208,5.64989 3.802592,2.02946 9.734255,-2.11336 9.722758,2.38059 -0.01035,4.29749 -4.676422,0.0898 -9.344349,2.2815 -2.13169,4.52708 -1.850128,14.04496 -1.725938,18.61073 0.101508,3.74024 1.49361,4.49947 1.873884,5.44963 1.394345,3.48337 3.732642,5.9223 5.217175,7.89514 4.583128,6.0901 8.166582,7.90688 9.673035,10.46079 -1.027987,4.66106 -9.725516,2.61744 -9.563104,6.36355 -0.315571,5.40993 -0.380069,10.1901 -0.293128,15.67937 0.04696,2.9614 1.28286,15.3215 2.180337,15.6947 4.909404,-2.297 7.21048,-9.194 9.600738,-12.9605 0.302106,-0.4754 1.373181,-0.5313 1.877888,-0.8145 z m -16.567259,16.9642 c -2.810444,-3.5047 -8.43216,-3.8238 -11.941174,-1.0893 -2.250738,1.8658 -4.33416,7.3044 -2.256262,11.9927 1.718963,3.8787 9.273704,5.6844 12.648619,1.6998 2.836132,-3.3495 4.718891,-8.6503 1.548817,-12.6032 z"
       id="path4229"
       inkscape:connector-curvature="0"
       sodipodi:nodetypes="cccccccccscccsssccscccsscssccccccsscssccccsccccccscsccccccssssscccscscscsscccccscccsccscsssccccssscsss" />
  </g>
</svg>
