<?xml version="1.0" encoding="UTF-8" standalone="no"?>
<!-- Created with Inkscape (http://www.inkscape.org/) -->

<svg
   xmlns:dc="http://purl.org/dc/elements/1.1/"
   xmlns:cc="http://creativecommons.org/ns#"
   xmlns:rdf="http://www.w3.org/1999/02/22-rdf-syntax-ns#"
   xmlns:svg="http://www.w3.org/2000/svg"
   xmlns="http://www.w3.org/2000/svg"
   xmlns:sodipodi="http://sodipodi.sourceforge.net/DTD/sodipodi-0.dtd"
   xmlns:inkscape="http://www.inkscape.org/namespaces/inkscape"
   width="3.8470168mm"
   height="4.0618672mm"
   viewBox="0 0 13.631162 14.392443"
   id="svg10422"
   version="1.1"
   inkscape:version="0.91 r13725"
   sodipodi:docname="redoubt-1.svg">
  <defs
     id="defs10424" />
  <sodipodi:namedview
     id="base"
     pagecolor="#ffffff"
     bordercolor="#666666"
     borderopacity="1.0"
     inkscape:pageopacity="0.0"
     inkscape:pageshadow="2"
     inkscape:zoom="7.9195959"
     inkscape:cx="6.6832082"
     inkscape:cy="-9.3056034"
     inkscape:document-units="px"
     inkscape:current-layer="layer1"
     showgrid="false"
     fit-margin-top="0"
     fit-margin-left="0"
     fit-margin-right="0"
     fit-margin-bottom="0"
     inkscape:window-width="1920"
     inkscape:window-height="1027"
     inkscape:window-x="0"
     inkscape:window-y="0"
     inkscape:window-maximized="1" />
  <metadata
     id="metadata10427">
    <rdf:RDF>
      <cc:Work
         rdf:about="">
        <dc:format>image/svg+xml</dc:format>
        <dc:type
           rdf:resource="http://purl.org/dc/dcmitype/StillImage" />
        <dc:title></dc:title>
      </cc:Work>
    </rdf:RDF>
  </metadata>
  <g
     inkscape:label="Calque 1"
     inkscape:groupmode="layer"
     id="layer1"
     transform="translate(-368.18442,-525.16598)">
    <path
       style="fill:#000000"
       d="m 372.38402,539.26784 c -1.8076,-0.0684 -3.4113,-0.45821 -3.5638,-0.86631 -0.1524,-0.4081 -0.3771,-3.58691 -0.4992,-7.06403 -0.2007,-5.71465 -0.347,-5.79912 0.826,-6.17152 6.6677,0.67699 10.6294,-0.33304 12.5529,0.35999 0.397,4.3535 -0.3433,9.74326 -0.4934,13.17587 -0.012,1.05929 -2.125,0.99297 -8.8225,0.566 z m 6.2361,-12.21538 c -1.6498,-0.0841 -6.585,-0.15011 -7.8526,0 -1.5126,0.17912 -0.5391,8.60559 -0.5433,9.93541 2.2599,1.13167 6.2812,0.0555 8.0478,0.23734 2.2008,0.2266 2.3868,-9.93513 0.3481,-10.17275 z"
       id="path10411"
       inkscape:connector-curvature="0"
       sodipodi:nodetypes="ccscccccscsc" />
  </g>
</svg>
