<?xml version="1.0" encoding="UTF-8" standalone="no"?>
<!-- Created with Inkscape (http://www.inkscape.org/) -->

<svg
   xmlns:dc="http://purl.org/dc/elements/1.1/"
   xmlns:cc="http://creativecommons.org/ns#"
   xmlns:rdf="http://www.w3.org/1999/02/22-rdf-syntax-ns#"
   xmlns:svg="http://www.w3.org/2000/svg"
   xmlns="http://www.w3.org/2000/svg"
   xmlns:sodipodi="http://sodipodi.sourceforge.net/DTD/sodipodi-0.dtd"
   xmlns:inkscape="http://www.inkscape.org/namespaces/inkscape"
   width="95.54792"
   height="124.89109"
   viewBox="0 0 95.547917 124.89109"
   id="svg4999"
   version="1.1"
   inkscape:version="0.91 r13725"
   sodipodi:docname="village-1.svg">
  <defs
     id="defs5001" />
  <sodipodi:namedview
     id="base"
     pagecolor="#ffffff"
     bordercolor="#666666"
     borderopacity="1.0"
     inkscape:pageopacity="0.0"
     inkscape:pageshadow="2"
     inkscape:zoom="2.8"
     inkscape:cx="-76.72791"
     inkscape:cy="41.512394"
     inkscape:document-units="px"
     inkscape:current-layer="layer1"
     showgrid="false"
     units="px"
     inkscape:window-width="1920"
     inkscape:window-height="1027"
     inkscape:window-x="0"
     inkscape:window-y="0"
     inkscape:window-maximized="1"
     showguides="true"
     inkscape:guide-bbox="true"
     fit-margin-top="0"
     fit-margin-left="0"
     fit-margin-right="0"
     fit-margin-bottom="0">
    <sodipodi:guide
       position="56.86753,-0.58768121"
       orientation="0,1"
       id="guide5615" />
    <sodipodi:guide
       position="0.43896099,-46.301967"
       orientation="1,0"
       id="guide5617" />
    <sodipodi:guide
       position="94.724672,0.48374732"
       orientation="1,0"
       id="guide5619" />
  </sodipodi:namedview>
  <metadata
     id="metadata5004">
    <rdf:RDF>
      <cc:Work
         rdf:about="">
        <dc:format>image/svg+xml</dc:format>
        <dc:type
           rdf:resource="http://purl.org/dc/dcmitype/StillImage" />
        <dc:title></dc:title>
      </cc:Work>
    </rdf:RDF>
  </metadata>
  <g
     inkscape:label="Calque 1"
     inkscape:groupmode="layer"
     id="layer1"
     transform="translate(-2.7753247,-924.7406)">
    <path
       id="path5048"
       style="fill:#000000"
       d="m 4.544714,1048.4595 c -2.0526548,-0.4223 -1.9847239,-1.5578 -1.4513304,-2.0915 0.1845003,-0.1847 1.7074843,-0.4693 3.3839921,-0.6329 3.6599003,-0.357 5.3127953,-3.6869 4.9042863,-6.47 -0.618743,-0.8997 -3.2043558,-1.6648 -3.1780531,-2.3067 0.044563,-1.0678 3.4873291,-3.0497 6.6099501,-5.9743 3.181585,-2.984 5.595252,-6.4584 5.955068,-8.5709 0.203793,-1.1978 0.651593,-3.0959 0.994944,-4.2181 0.343296,-1.1224 0.56206,-3.2217 0.486168,-4.6658 -0.200532,-3.8144 -0.09511,-4.1804 1.202648,-4.1804 0.913916,0 0.822101,0.6193 1.148712,2.7977 -0.221726,2.615 0.02799,4.437 1.158412,5.2358 1.156049,0.8171 3.667292,0.5818 6.161906,0.6568 0.342153,-0.092 1.373182,-0.2937 2.291065,-0.4494 2.125966,-0.3598 2.417417,-1.1706 2.739789,-7.6187 0.344737,-6.8954 0.647056,-8.0873 2.050645,-8.0873 1.462144,0 0.955462,3.7069 1.160096,9.1892 -0.373429,3.6443 0.14184,5.3954 2.304245,9.7714 0.970433,4.9025 0.981764,23.8792 -2.855164,25.4307 -2.85193,1.1534 -9.970519,0.4116 -12.578007,0.5043 -1.876387,-0.3473 -2.776662,-0.1984 -6.952485,-0.2717 -1.023202,-0.027 -0.775391,-0.1169 -1.064504,-0.9856 -0.251616,-0.7557 2.15686,-0.6948 4.896324,-0.7067 2.575941,0 3.186694,-0.8961 3.440728,-4.9853 0,0 0.609341,-2.1401 -0.101896,-2.911 -3.112839,-1.3923 -6.879771,-0.7212 -10.277649,-1.2367 -2.676831,-0.3233 -2.205526,2.1725 -2.953636,6.16 -0.330525,1.7619 -0.368376,2.9176 0.603444,3.6015 0.665668,0.4685 2.070479,0.027 2.307097,0.7698 0.372451,1.1784 0.112222,2.3393 -1.932554,2.9069 -3.640961,-0.098 -5.0793024,-0.047 -10.454404,-0.6627 z M 29.4571,1032.6571 c 1.409621,-1.0651 4.886869,-6.7262 6.151742,-8.6664 1.437364,-2.2052 0.801395,-2.4737 -5.709267,-3.1215 -5.026072,-0.6554 -5.06118,-0.1766 -6.652475,2.2039 -1.999695,3.633 -5.955394,8.6305 -5.65158,9.5164 0.377098,0.7078 1.564177,0.7396 6.093946,0.7358 2.827448,0 4.358094,0.3972 5.767634,-0.6682 z m 18.777274,-58.17168 c -1.618603,0 -1.717702,0.41301 -1.419105,5.90998 0.195641,3.60252 0.216293,2.51698 -0.356664,18.97447 -0.244279,7.01403 -0.436442,13.73263 -0.427286,14.93043 0.0082,1.1975 0.03885,4.803 0.06684,8.0117 l 0.04999,5.8347 c 0,0 1.467661,-1.1809 3.904397,-1.5626 1.262645,-0.1984 4.089442,-0.2201 6.571745,0.6802 1.80468,-1.112 -0.03885,-26.3225 -0.03885,-26.3225 -0.430193,-9.74674 1.133006,-24.83773 -0.04783,-25.99609 -1.516544,-1.48768 -6.651116,-0.46029 -8.302571,-0.46029 z m 20.639884,64.11788 c 1.993854,0.065 3.621723,0.032 4.686853,0.027 1.065076,0 0.882722,-5.3073 1.217105,-5.3109 0.119286,0 1.62162,-1.6934 1.94527,-0.3602 0.324003,1.335 -0.526873,5.0477 1.116838,5.0255 1.643847,-0.027 4.194381,0.5334 5.580443,0.5877 2.363236,0.092 1.322316,-5.6366 1.689252,-10.3505 0.391227,-5.0244 -0.314846,-7.1471 -2.212211,-6.651 -1.045566,0.274 -1.170939,0.7701 -0.967608,3.8319 0.01631,6.6917 0.989699,14.4245 -1.454102,13.5807 -0.568989,-0.1956 -0.748056,-14.8812 -0.748056,-15.9727 0,-0.9051 -0.414704,-1.2442 -1.522548,-1.2442 -1.451005,0 -1.515593,0.163 -1.373618,3.4647 0.08233,1.9059 0.123635,9.0223 -0.147003,9.1897 -0.270908,0.1685 -2.14235,1.0152 -2.14235,-0.035 0,-1.0513 0.512525,-14.5869 -0.860006,-14.4587 -3.044283,-0.3714 -4.689379,-0.2065 -4.550964,1.7406 m -1.056542,-6.5227 c 6.178289,-1.7178 10.402831,-1.0246 13.732641,-1.0757 2.945593,-0.043 0.290364,4.5807 2.30457,4.5878 2.77593,0 2.453746,-1.0932 2.749627,9.3312 0.08396,2.9534 0.51035,5.3511 1.16189,6.5323 0.566136,1.0263 1.192949,2.7279 1.392937,3.781 0.336965,1.7744 0.681211,1.9969 4.702124,3.0401 4.278669,1.1094 4.336084,1.1521 4.150143,3.062 -0.111678,1.1451 -0.506492,1.8733 -0.966248,1.7812 -5.42154,0.5613 -6.581963,0.297 -10.619831,0 -5.947324,-0.785 -10.114777,0.3316 -13.450104,2.5653 -1.243381,0.8149 -3.235494,0.9633 -11.348076,0.8459 -10.480518,-1.8387 -12.796527,-2.5928 -18.49979,-3.2248 l -4.093082,-0.4383 0,-8.5837 c 0,-6.8711 -0.638741,-8.6598 2.032928,-9.2796 1.259521,-1.5127 1.514452,-10.6978 1.979262,-26.207 0.185588,-6.32979 0.963832,-13.79567 0.933969,-16.63274 -0.0701,-6.68793 0.158143,-10.48881 -2.444725,-11.14175 -2.411983,-0.60567 -4.733589,-2.02706 -2.236911,-2.78055 4.475832,-0.89641 8.354823,-7.80988 10.345552,-10.08611 2.03695,-2.13277 2.101891,-6.37818 2.097626,-10.9214 -0.0055,-3.55359 0.20977,-7.44006 -0.421064,-9.64129 -0.408998,-1.25455 -1.686995,-1.2953 -2.58333,-1.3271 -1.632543,0 -4.13539,0.0924 -4.41426,-0.9744 -0.4306,-1.64665 3.352445,-1.43905 5.358825,-1.94283 0.818595,-0.20379 1.283025,-1.45154 1.464156,-2.04987 0.358404,-3.10636 -0.779222,-9.64864 1.823075,-9.62419 2.602162,0.0272 -0.559995,12.19632 3.528604,11.61972 2.439155,0.14401 5.206062,0.11956 5.428223,1.46215 0.221999,1.34313 -0.875412,1.70615 -4.307172,1.70615 -1.927826,0 -2.807422,-0.0272 -3.313861,0.59534 -1.149391,1.04886 -0.151078,10.25703 0.628035,17.81692 0.974238,4.05413 3.943526,9.05248 8.363355,12.95932 2.858887,0.24183 4.026184,-0.10055 7.087368,0.58013 1.410817,1.44367 1.342397,1.41269 0.69469,2.44959 -0.583582,0.93446 -1.973122,0.40486 -4.740029,0.40486 -3.470537,0 -3.393232,0.40678 -4.486077,1.1888 -0.174718,1.11189 0.438725,4.89238 0.5488,6.43197 -0.02445,21.74068 0.286696,37.01828 0.569424,41.28738 0.902585,0.8431 3.391221,0 4.020478,0.068 1.105181,-1.6961 -1.082655,-6.0499 0.826258,-8.163 z m -10.013615,16.495 c -2.033689,-2.6253 -9.098368,-2.24 -12.134799,0.277 -3.036403,2.5177 -2.043797,7.3971 -0.711834,9.6203 1.332016,2.2229 7.060549,4.0085 10.878239,1.5051 3.817664,-2.5034 4.763507,-7.4588 1.968394,-11.4034 z m -8.679588,-36.67097 c -0.717188,-0.85103 -1.097492,-10.48608 -0.08341,-11.67569 1.011002,-1.18608 2.025184,-1.1676 2.932224,0.14129 0.579126,0.8342 1.402909,9.9421 0.0307,11.58439 -0.878075,1.05076 -1.754383,1.28744 -2.879265,-0.0462 z m 7.866455,-23.87989 c 0.546681,-1.36541 -2.442769,-9.68287 -4.834888,-9.24376 -2.392147,0.4391 -7.9821,9.17039 -6.844067,9.60406 1.613902,0.0435 11.13241,1.00538 11.678955,-0.3603 z"
       inkscape:connector-curvature="0" />
  </g>
</svg>
