<?xml version="1.0" encoding="UTF-8" standalone="no"?>
<!-- Created with Inkscape (http://www.inkscape.org/) -->

<svg
   xmlns:dc="http://purl.org/dc/elements/1.1/"
   xmlns:cc="http://creativecommons.org/ns#"
   xmlns:rdf="http://www.w3.org/1999/02/22-rdf-syntax-ns#"
   xmlns:svg="http://www.w3.org/2000/svg"
   xmlns="http://www.w3.org/2000/svg"
   xmlns:sodipodi="http://sodipodi.sourceforge.net/DTD/sodipodi-0.dtd"
   xmlns:inkscape="http://www.inkscape.org/namespaces/inkscape"
   width="100"
   height="100"
   viewBox="0 0 99.999997 99.999997"
   id="svg4999"
   version="1.1"
   inkscape:version="0.91 r13725"
   sodipodi:docname="village-ruined-1.svg">
  <defs
     id="defs5001" />
  <sodipodi:namedview
     id="base"
     pagecolor="#ffffff"
     bordercolor="#666666"
     borderopacity="1.0"
     inkscape:pageopacity="0.0"
     inkscape:pageshadow="2"
     inkscape:zoom="5.6"
     inkscape:cx="76.846601"
     inkscape:cy="8.1369923"
     inkscape:document-units="px"
     inkscape:current-layer="layer1"
     showgrid="false"
     units="px"
     inkscape:window-width="1920"
     inkscape:window-height="1027"
     inkscape:window-x="0"
     inkscape:window-y="0"
     inkscape:window-maximized="1"
     showguides="true"
     inkscape:guide-bbox="true">
    <sodipodi:guide
       position="59.642855,2.1428571"
       orientation="0,1"
       id="guide5615" />
    <sodipodi:guide
       position="3.2142856,-43.571427"
       orientation="1,0"
       id="guide5617" />
    <sodipodi:guide
       position="97.499997,3.2142856"
       orientation="1,0"
       id="guide5619" />
  </sodipodi:namedview>
  <metadata
     id="metadata5004">
    <rdf:RDF>
      <cc:Work
         rdf:about="">
        <dc:format>image/svg+xml</dc:format>
        <dc:type
           rdf:resource="http://purl.org/dc/dcmitype/StillImage" />
        <dc:title></dc:title>
      </cc:Work>
    </rdf:RDF>
  </metadata>
  <g
     inkscape:label="Calque 1"
     inkscape:groupmode="layer"
     id="layer1"
     transform="translate(0,-952.36223)">
    <path
       style="fill:#000000"
       d="m 64.055632,1044.5758 c -2.02341,-0.1457 0.984795,4.0475 -1.615334,3.4582 -3.414599,0 -6.545692,-2.6575 -8.713717,-4.3122 -2.168048,-1.6546 -2.557287,-3.4755 0.164149,-2.7837 2.721436,0.6916 8.117074,-1.4754 3.203502,-2.8286 -6.359606,-1.9115 -15.916396,-5.7916 -20.226164,-7.1575 -4.309769,-1.3658 -4.974944,2.8295 -6.203377,-1.4117 -1.366875,-2.5562 -3.253508,-6.2387 -5.431301,-8.3016 -1.813445,-1.7181 -4.312335,-2.1455 -6.322141,-2.8963 -4.423238,-1.6522 -5.005107,-2.127 -6.881973,1.7162 -1.876865,3.843 -3.9023486,2.3328 -2.7058417,-0.4526 1.1964657,-2.7857 1.5406667,-2.4403 0.8232927,-3.5034 -0.6405121,-0.9488 -1.123194,-0.9652 -3.6104913,-1.6661 -5.2731213,-1.4862 -4.1544623,-4.3003 0.925496,-2.1196 2.5729833,1.1045 3.4270123,1.7028 4.2075653,1.7166 1.078195,0.02 0.431117,0.6699 2.137391,-2.2318 1.85842,-3.1606 3.773327,-1.5416 2.08388,1.3528 -0.846069,1.4492 -1.04627,1.8879 2.095185,2.9869 3.141495,1.0989 5.387779,2.2967 9.641267,1.5566 2.712141,-0.855 7.869455,-3.9861 10.541503,-3.7226 0.567875,0.058 -0.126601,1.3662 0.34775,1.8426 9.568547,4.2956 20.850877,5.3006 30.669034,8.8141 4.691918,1.6396 5.998365,-0.1745 9.205048,-1.3872 3.206703,-1.212 6.758059,-3.1722 7.271375,-1.1278 0.513255,2.0444 4.726258,1.3991 2.5546,4.0467 -2.264998,2.7698 -4.587654,6.4502 -2.999917,10.1463 2.055605,3.7411 6.678796,4.8403 10.448963,6.0901 2.982845,-1.0998 1.987729,4.3647 -1.45379,4.6546 -3.44152,0.29 -5.247186,3.1507 -6.833958,2.6387 -3.159593,0.02 -7.027962,0.195 -9.330387,-2.1376 0.543869,3.9788 -7.002016,2.2884 -8.285728,2.0636 -0.56966,-0.099 -0.980384,-2.2187 -1.746101,-3.0688 -0.959782,-1.0653 -2.357515,-0.9761 -3.9598,-1.9749 z m -9.877969,-16.8702 c -0.874692,-1.105 -9.834428,-2.9759 -10.440304,-2.8723 -0.605876,0.1026 -0.817752,1.0495 0.517256,1.8255 2.082176,1.2105 6.892601,2.4697 8.700832,2.8251 1.034121,0.2031 1.148739,-1.5373 1.222216,-1.7783 z m 28.073203,9.0773 c -0.136654,-5.7427 3.138972,-11.6267 0.350378,-11.7225 -5.001475,1.0873 -6.507322,10.0768 -4.945089,14.0078 0.586978,1.4776 2.1116,0.7635 3.314221,0.7924 0.98972,-0.6599 1.070153,-2.0226 1.28049,-3.0777 z m -15.451022,-0.1579 c 3.409838,-2.6266 1.074852,-7.0371 -1.263665,-9.489 -2.886899,-1.9009 -6.473506,1.0072 -7.759166,3.6214 -2.424121,3.6456 2.763951,6.8006 5.81385,7.3858 1.246204,0.062 2.39482,-0.6222 3.208981,-1.5182 z m -7.346536,-11.7437 c 0.639568,-0.4857 -20.262093,-6.6575 -21.632229,-5.0767 -1.187191,2.1424 -2.704405,5.4323 -2.882897,7.8455 4.203932,1.4199 17.316181,6.4737 19.084914,6.8098 0.949011,0.1806 0.392461,-3.457 1.778397,-5.8433 1.197225,-2.0611 3.355402,-3.5101 3.651815,-3.7353 z m 14.5039,4.7 c -0.455074,-1.2163 -4.90677,-2.7991 -5.345727,-2.1811 -0.33308,0.4693 0.951617,1.6663 1.492202,3.0706 0.715118,1.8576 0.576022,2.9884 0.325653,4.4903 -0.250391,1.5016 -1.209106,3.1486 -2.87664,3.9964 -3.112564,1.5825 -5.737972,0.4683 -5.991646,1.0904 -0.06689,0.1642 0.05499,1.1279 2.172234,1.6591 2.002358,0.5028 6.202269,0.4162 7.932673,-0.3693 1.880702,-0.8533 1.55189,-6.83 1.65354,-6.828 0.344981,-0.078 0.661389,-4.5736 0.637711,-4.9284 z m -38.189455,-12.404 c -1.126498,-0.6656 -7.686881,1.8246 -8.088862,2.6418 -0.430195,0.8746 1.919996,6.5872 3.649189,6.8233 1.729131,0.2362 5.566149,-8.7994 4.439673,-9.4651 z"
       id="path8318"
       inkscape:connector-curvature="0"
       sodipodi:nodetypes="cczzczcsszzsssssszcscczzccczccsscczsscccscccccccsccssscsszsssscczszz" />
  </g>
</svg>
