<?xml version="1.0" encoding="UTF-8" standalone="no"?>
<!-- Created with Inkscape (http://www.inkscape.org/) -->

<svg
   xmlns:dc="http://purl.org/dc/elements/1.1/"
   xmlns:cc="http://creativecommons.org/ns#"
   xmlns:rdf="http://www.w3.org/1999/02/22-rdf-syntax-ns#"
   xmlns:svg="http://www.w3.org/2000/svg"
   xmlns="http://www.w3.org/2000/svg"
   xmlns:sodipodi="http://sodipodi.sourceforge.net/DTD/sodipodi-0.dtd"
   xmlns:inkscape="http://www.inkscape.org/namespaces/inkscape"
   width="7.3144345mm"
   height="8.6765947mm"
   viewBox="0 0 25.917287 30.743839"
   id="svg8612"
   version="1.1"
   inkscape:version="0.91 r13725"
   sodipodi:docname="windmill-ruined-1.svg">
  <defs
     id="defs8614" />
  <sodipodi:namedview
     id="base"
     pagecolor="#ffffff"
     bordercolor="#666666"
     borderopacity="1.0"
     inkscape:pageopacity="0.0"
     inkscape:pageshadow="2"
     inkscape:zoom="22.4"
     inkscape:cx="8.7259461"
     inkscape:cy="15.954266"
     inkscape:document-units="px"
     inkscape:current-layer="layer1"
     showgrid="false"
     fit-margin-top="0"
     fit-margin-left="0"
     fit-margin-right="0"
     fit-margin-bottom="0"
     inkscape:window-width="1920"
     inkscape:window-height="1027"
     inkscape:window-x="0"
     inkscape:window-y="0"
     inkscape:window-maximized="1" />
  <metadata
     id="metadata8617">
    <rdf:RDF>
      <cc:Work
         rdf:about="">
        <dc:format>image/svg+xml</dc:format>
        <dc:type
           rdf:resource="http://purl.org/dc/dcmitype/StillImage" />
        <dc:title></dc:title>
      </cc:Work>
    </rdf:RDF>
  </metadata>
  <g
     inkscape:label="Calque 1"
     inkscape:groupmode="layer"
     id="layer1"
     transform="translate(-416.18094,-648.34435)">
    <path
       style="fill:#000000"
       d="m 429.43199,661.99031 c -0.44791,0.32637 2.4867,4.27565 2.99704,3.83277 0.36919,-0.32051 0.59885,-2.6579 0.0753,-3.44434 -0.6302,-0.37701 -2.67756,-0.676 -3.07218,-0.38843 z m 3.24711,4.96791 c -0.21233,0.0412 -0.59125,-0.036 -0.84204,-0.16972 -0.30206,-0.16159 -0.50387,-0.16653 -0.59781,-0.0144 -1.17163,1.01719 -0.63756,0.42981 -0.80625,3.26844 0,0.78407 -0.15338,2.24981 -0.33542,3.25722 -0.48922,2.70782 -0.46297,3.0908 0.21193,3.0908 1.10021,0 0.84731,0.78468 -0.30652,0.95101 -0.30198,0.0432 -0.66251,0.28026 -0.80131,0.52594 -0.70243,1.24352 -1.56699,1.51081 -2.97889,0.92086 -0.92012,-0.38442 -2.01369,-0.78274 -2.43593,-0.36055 -0.49738,0.49743 -1.87763,-0.0442 -1.87763,-0.83944 l 0.28611,0.77676 c 0,-0.42497 -0.0632,-1.088 -0.1401,-1.47335 -0.12884,-0.6443 -0.0967,-0.69123 0.40062,-0.58193 0.29743,0.0649 0.76915,0.2288 1.04814,0.36322 0.36635,0.17641 0.59489,0.17168 0.82236,-0.0175 0.1733,-0.14378 0.38224,-0.19432 0.46435,-0.11218 0.082,0.0823 0.367,-0.0473 0.63319,-0.28819 0.48054,-0.43444 0.48856,-0.43187 1.15836,0.36384 0.64752,0.76945 0.68534,0.78314 0.94836,0.34345 1.16865,0.97541 1.83618,-8.74212 1.51145,-8.15545 -0.90773,0.76101 -2.87524,2.04992 -4.04405,2.59768 -0.17605,0.96028 -0.67782,2.51093 -1.30153,3.16326 -0.63408,0.64286 -1.49872,1.05486 -2.24747,1.18403 l -1.09916,0.17425 0.75109,0.67446 c 0.94036,0.84459 0.70787,1.14667 -0.95922,1.2464 -0.74017,0.0443 -1.2893,-0.51626 -1.44252,-0.3097 -0.37421,0.50392 -1.31409,0.43372 -1.46916,0.0299 -0.2048,-0.53376 -0.0923,-1.17693 0.13078,-1.17693 0.25931,0 0.52006,-0.97427 0.30424,-1.13658 -0.52921,-0.93681 -1.40623,-0.95925 -1.48413,-4.08226 0.10972,-0.41221 0.869,-0.93928 0.869,-0.93928 0.47796,-0.51657 0.9657,-0.93928 1.08386,-0.93928 0.48038,0 1.92614,-0.81341 2.5182,-1.41685 1.22824,-1.14986 4.34294,-3.25145 4.74866,-4.48026 0,-0.12742 -0.54088,-0.30506 -1.20193,-0.39481 -2.91387,-0.39564 -4.10688,-0.69813 -4.54726,-1.18476 -0.22642,-0.2502 0.72268,-0.35642 0.84552,-0.36774 1.31118,-0.12114 5.23934,0.99239 5.7969,0.94216 0.83742,-0.0751 2.74607,-0.85787 3.07,-1.86333 0.0639,-0.27871 0.12762,-1.17641 0.14123,-1.99486 0.0235,-1.38463 0.26578,-4.23963 0.59642,-7.01445 0.20594,-1.72808 0.37396,-3.17375 0.7387,-3.17375 0.54211,0.16305 0.41973,1.17638 0.24841,2.64621 -0.22926,1.96686 -0.34161,4.64633 -0.38138,6.19433 -0.0251,1.38514 0.0933,2.91591 0.0478,3.29374 -0.0729,0.60539 0.7875,0.69545 1.35063,0.75998 0.65514,0.0751 0.7311,0.0226 2.83644,-1.96203 0.5073,-0.38689 3.2313,-2.88278 3.2796,-2.19134 0,0.0854 -0.8085,0.93547 -1.7968,1.88885 -1.9248,1.85695 -2.5667,2.87188 -2.5304,4.00084 0.049,1.53387 -0.1446,2.42375 1.0702,2.67262 1.5356,0.51554 3.5848,0.43104 4.9312,0.50165 2.1339,0.10395 2.3506,0.17826 2.1376,0.73343 -0.2378,0.6196 -1.2351,0.84181 -2.6252,0.58481 -0.6989,-0.12927 -1.754,-0.23497 -2.3448,-0.23497 -2.0659,-0.0124 -3.2269,-0.45729 -4.38441,-0.27429 z m -12.23361,9.43243 c 0,-0.0463 -0.3308,-0.34994 -0.7102,-0.32936 -0.36847,0.0196 -0.78155,0.36425 -1.05892,0.31196 -0.60031,-0.11321 -0.56168,-0.50998 -0.62663,-0.50998 -0.12593,0 -0.33113,0.37937 -0.33113,0.56824 0,0.18886 0.55269,0.36383 0.67862,0.36383 0.12593,0 2.04826,-0.21583 2.04826,-0.40469 z m 0.14083,-1.20976 c 2.03246,-0.27275 3.11373,-2.36395 2.95177,-3.54469 -0.10892,-0.74198 -1.33174,-2.16222 -2.90553,-2.25073 -1.44884,-0.0813 -3.62788,1.84325 -3.57144,3.14184 0.072,1.65028 2.39478,2.80467 3.5252,2.65358 z m 4.32805,-4.79182 c 1.61055,-1.14245 3.08603,-2.5632 4.55228,-3.80271 1.29311,-1.0913 1.31174,-1.28078 0.24173,-2.45668 -0.47982,-0.52728 -0.80503,-1.11024 -1.49815,-1.1582 -0.42394,-0.0299 -1.18614,0.42909 -2.62696,1.91438 -0.76624,0.97314 -4.24115,3.00372 -3.90581,3.47644 1.06539,0.75186 2.51463,2.3622 3.23691,2.02677 z m 6.50976,7.22946 c -0.31389,-0.81794 1.09868,-1.68918 1.55962,-0.96193 0.11588,0.1829 0.19549,0.20245 0.19759,0.0484 0.008,-0.32853 1.25267,-0.58379 1.97187,-0.40326 1.0124,0.25412 0.6515,0.77522 -0.5374,0.77615 -0.6826,5.1e-4 -1.36668,0.17096 -1.83719,0.45791 -0.90998,0.55475 -1.16726,0.5705 -1.35449,0.0823 z"
       id="path4339"
       inkscape:connector-curvature="0"
       sodipodi:nodetypes="cscscsccssscssccccscscsccccccssscsccssccscsscccccscsccssccssccsscsssscccscccssccccscscscccc" />
  </g>
</svg>
