<?xml version="1.0" encoding="UTF-8" standalone="no"?>
<!-- Created with Inkscape (http://www.inkscape.org/) -->

<svg
   xmlns:dc="http://purl.org/dc/elements/1.1/"
   xmlns:cc="http://creativecommons.org/ns#"
   xmlns:rdf="http://www.w3.org/1999/02/22-rdf-syntax-ns#"
   xmlns:svg="http://www.w3.org/2000/svg"
   xmlns="http://www.w3.org/2000/svg"
   xmlns:sodipodi="http://sodipodi.sourceforge.net/DTD/sodipodi-0.dtd"
   xmlns:inkscape="http://www.inkscape.org/namespaces/inkscape"
   width="6.1692057mm"
   height="8.8270216mm"
   viewBox="0 0 21.85939 31.276848"
   id="svg7987"
   version="1.1"
   inkscape:version="0.91 r13725"
   sodipodi:docname="windmill-1.svg">
  <defs
     id="defs7989" />
  <sodipodi:namedview
     id="base"
     pagecolor="#ffffff"
     bordercolor="#666666"
     borderopacity="1.0"
     inkscape:pageopacity="0.0"
     inkscape:pageshadow="2"
     inkscape:zoom="3.959798"
     inkscape:cx="-48.963475"
     inkscape:cy="34.581305"
     inkscape:document-units="px"
     inkscape:current-layer="layer1"
     showgrid="false"
     fit-margin-top="0"
     fit-margin-left="0"
     fit-margin-right="0"
     fit-margin-bottom="0"
     inkscape:window-width="1920"
     inkscape:window-height="1027"
     inkscape:window-x="0"
     inkscape:window-y="0"
     inkscape:window-maximized="1" />
  <metadata
     id="metadata7992">
    <rdf:RDF>
      <cc:Work
         rdf:about="">
        <dc:format>image/svg+xml</dc:format>
        <dc:type
           rdf:resource="http://purl.org/dc/dcmitype/StillImage" />
        <dc:title></dc:title>
      </cc:Work>
    </rdf:RDF>
  </metadata>
  <g
     inkscape:label="Calque 1"
     inkscape:groupmode="layer"
     id="layer1"
     transform="translate(-867.44333,-850.9068)">
    <path
       style="fill:#000000"
       d="m 874.63702,870.45205 c -0.0217,0.32894 4.65123,0.53465 4.66772,0.026 0.0577,-1.77837 0.61589,-7.26254 -0.17575,-8.39274 -0.41235,-0.58873 -1.3934,-1.77174 -1.87302,-1.70765 -0.65648,0.0877 -1.42171,1.22544 -2.0052,2.27983 -0.4289,2.33582 -0.57302,7.17808 -0.61375,7.79451 z m -1.88943,-6.36874 c 0.0888,-0.51836 0.58481,-1.0307 0.9643,-1.56216 0.26553,-0.37187 0.4218,-0.56405 0.6649,-1.07501 0.19865,-0.41753 0.25095,-0.94754 0.13123,-1.0517 -0.11973,-0.10417 -1.34728,-1.04156 -2.72789,-2.08309 -1.38061,-1.04153 -3.59947,-2.79265 -3.94865,-3.29118 -0.8512,-1.21525 -0.22828,-1.58772 1.14728,-0.63627 2.21202,1.53002 6.43231,5.65199 6.90775,5.31264 0.16479,-0.11762 0.72139,-0.44757 0.9456,-0.89928 0.57579,-1.16003 0.98689,-3.76237 0.69483,-4.52347 -0.2191,-0.57098 -0.6801,-0.16215 -1.51395,0.28411 -0.81802,0.43779 -2.37438,0.38914 -2.25078,0.12844 0.36722,-0.77462 2.64671,-1.36752 3.5928,-2.22779 0.76612,-0.69663 1.12572,-2.06207 1.38145,-1.35346 0.16708,0.46297 0.19737,1.78676 -0.0388,2.61382 -0.45239,1.5844 -0.52132,3.98924 -0.26684,5.13769 0.0915,0.41281 0.50987,0.7058 0.6849,0.7058 0.30548,0 1.192,-0.50863 1.97005,-1.13029 3.75888,-3.00335 6.00403,-4.48271 6.58884,-4.48898 1.19971,-0.0129 -1.52686,1.91888 -2.73527,2.97955 -0.63558,0.55788 -2.48861,1.66447 -3.58027,2.66808 -1.94337,1.78662 -1.84249,1.55015 -1.19172,2.50325 0.2104,0.30817 0.7385,1.11595 0.98674,1.44517 0.31526,0.41808 0.60582,0.44919 1.00099,0.77124 1.31129,1.06862 3.92427,2.41404 5.42757,3.51135 0.51699,0.37738 1.18953,0.98925 1.12221,1.30144 -0.15661,0.72634 -1.97331,-0.81387 -2.5894,-1.08778 -1.37319,-0.61048 -3.8466,-2.05188 -4.46826,-2.49437 l -0.0728,0.93171 0,2.82421 c 0,2.12409 -0.17944,1.92453 -0.72387,1.92453 -0.62321,0 -1.75682,0.35726 -1.77221,0.78616 -0.0247,0.68966 1.5404,1.68964 3.00038,2.62651 2.30641,1.48003 2.50981,1.76915 2.50981,3.56759 0,1.52215 0.19535,1.96098 0.87912,1.97484 0.48351,0.01 1.44426,0.35395 2.13499,0.7648 l 1.25588,0.74702 c 3.29884,1.96218 -12.71211,-2.70616 -17.14172,-0.27759 -1.08776,0.72226 -2.29701,0.43243 -3.23508,0.004 0,-0.72681 -0.16035,-1.00356 0.66482,-1.00356 0.47182,0 3.61461,0.0466 3.66045,-0.98516 0.18611,-1.53546 -0.021,-3.21605 0.0275,-4.63193 0.76124,-1.14295 2.10046,-1.96103 2.8268,-2.94516 -9.9e-4,-0.4436 -1.17964,-0.79575 -1.69657,-0.79575 -0.25637,0 -0.24718,-1.06716 -0.15321,-2.44864 0.10351,-1.52168 0.42489,-3.41836 0.10888,-3.56372 -0.24744,-0.11383 -1.519,0.98235 -2.23397,1.48321 -1.69523,1.18757 -3.53413,2.54898 -3.25027,1.8256 0.28039,-0.71456 5.8278,-4.91487 5.84764,-5.16023 -0.49368,0.432 -1.55627,1.01006 -1.53635,0.89375 z m 3.14313,14.63185 c 0,-0.50245 -0.21284,-1.6362 0.32143,-1.64447 0.49289,-0.008 1.09213,-0.0411 1.53453,5.6e-4 0.33058,0.0311 0.18056,1.07484 0.23384,1.79998 0.0152,0.20639 -0.0897,0.76533 0.27913,0.77132 0.70024,0.0114 2.9279,0.11204 4.14499,0.0729 0.0559,-1.16155 0.26049,-3.25734 -0.65065,-4.03543 -1.15405,-0.98554 -3.94004,-3.25602 -4.60833,-3.25556 -0.63263,4.3e-4 -2.52234,1.80744 -3.17995,2.60706 -0.53593,0.65168 -0.4399,1.37011 -0.42891,2.09076 0,1.35586 -0.23834,2.73721 0.44223,2.72039 0.86588,-0.0214 1.10626,-0.10861 1.60825,-0.11384 0.50059,-0.005 0.30344,-0.68006 0.30344,-1.01368 z m 0.66019,-11.08551 c 0,-0.53628 -0.0817,-1.13056 0.19457,-1.30131 0.10433,-0.0645 0.57235,-0.0782 0.70354,0.006 0.22707,0.14596 0.075,1.27235 0.075,1.73446 0,0.70704 -0.44702,0.5279 -0.72332,0.5279 -0.27629,0 -0.24981,-0.43088 -0.24981,-0.96715 z"
       id="path6147"
       inkscape:connector-curvature="0"
       sodipodi:nodetypes="sssscssssssssssssssssssscssssssssscssssscscsccscccscsscsssssssscssscssscsssssc" />
  </g>
</svg>
